<?xml version="1.0" encoding="UTF-8"?><svg xmlns="http://www.w3.org/2000/svg" viewBox="0 0 510.78 164.49"><defs><style>.d{isolation:isolate;}.e{fill:#7b868c;}.e,.f{mix-blend-mode:multiply;}.g{fill:#ff6b00;}.h{fill:#14c0db;}.i{fill:#2c3582;}.j{fill:none;stroke:#a2a9ad;stroke-linecap:round;stroke-linejoin:round;stroke-width:2.44px;}.k{fill:#cf202f;}.l{fill:#9d1d96;}.m{fill:#ffb71b;}.n{fill:#323e48;}.o{fill:#0671b8;}.p{fill:#76bc21;}.q{fill:#007da5;}.r{fill:#0099a8;}</style></defs><g class="d"><g id="a"/><g id="b"><g id="c"><g class="f"><line class="j" x1="1.22" y1="103.43" x2="509.56" y2="103.43"/><g><g><path class="n" d="M77.37,72.41c-.03-.17-.13-.33-.28-.42-.15-.1-.33-.13-.5-.09-1.31,.33-2.44,.5-3.35,.5-1.34,0-3.13-.42-3.13-4.07V31.29c0-2.12-1.14-3.28-3.2-3.28h-26.44c-1.86,0-3.16,.92-3.76,2.66l-12.52,38.06L9.25,28.42c-.09-.25-.33-.41-.59-.41H1.9c-.21,0-.4,.1-.52,.27-.12,.17-.14,.39-.07,.58l18.65,48.92c.09,.25,.33,.41,.59,.41h7.44c.27,0,.51-.17,.6-.43l14.91-43.71h18.69v35.03c0,6.83,2.77,10.3,8.24,10.3,2.5,0,4.98-.38,7.38-1.14,.3-.09,.48-.4,.43-.7l-.85-5.13Z"/><path class="n" d="M121.63,57.31c-1.88-2.17-4.18-3.87-6.85-5.04-2.61-1.14-5.25-2.24-7.85-3.26-2.55-1-4.73-2.24-6.5-3.71-1.69-1.39-2.51-3.11-2.51-5.24s.8-3.72,2.44-4.92c1.68-1.23,4.33-1.85,7.88-1.85s7.62,1.04,11.96,3.1c.16,.07,.33,.08,.49,.02,.16-.06,.29-.18,.36-.34l2.14-4.96c.14-.32,0-.69-.33-.83-5.31-2.3-10.56-3.47-15.6-3.47s-9.3,1.18-12.48,3.5c-3.24,2.37-4.88,5.72-4.88,9.96,0,3.22,.97,6,2.89,8.28,1.88,2.23,4.2,3.96,6.9,5.13,2.6,1.13,5.26,2.23,7.89,3.26,2.55,1,4.74,2.23,6.5,3.67,1.68,1.37,2.5,3.1,2.5,5.28s-.82,3.88-2.49,5.19c-1.7,1.33-4.19,2-7.39,2-5.73,0-9.44-3.21-11.37-9.81-.09-.32-.42-.52-.75-.44l-5.9,1.37c-.34,.08-.55,.42-.47,.76,1.06,4.57,3.22,8.16,6.43,10.66,3.21,2.5,7.44,3.77,12.58,3.77s9.34-1.22,12.49-3.64c3.2-2.45,4.82-5.9,4.82-10.25,0-3.22-.97-5.98-2.89-8.2Z"/><path class="n" d="M156.6,72.41c-.03-.17-.13-.33-.28-.42-.15-.1-.33-.13-.5-.09-1.31,.33-2.44,.5-3.35,.5-1.34,0-3.13-.42-3.13-4.07V31.29c0-2.12-1.14-3.28-3.2-3.28h-9.24c-.35,0-.63,.28-.63,.63v4.79c0,.35,.28,.63,.63,.63h4.5v35.03c0,6.83,2.77,10.3,8.24,10.3,2.5,0,4.98-.38,7.37-1.14,.3-.09,.48-.4,.43-.7l-.86-5.13Z"/><path class="n" d="M206.51,34.1c-4.04-4.83-9.54-7.28-16.35-7.28s-12.15,2.29-15.88,6.82c-3.7,4.49-5.58,10.88-5.58,19s2.02,14.68,6,19.48c4.01,4.83,9.5,7.28,16.31,7.28s12.17-2.29,15.92-6.81c3.73-4.49,5.62-10.88,5.62-19.01s-2.03-14.68-6.05-19.48Zm-1.97,19.39c0,6.25-1.23,11.12-3.64,14.47-2.41,3.34-5.68,4.96-10.01,4.96s-7.7-1.76-10.31-5.38c-2.62-3.64-3.94-8.63-3.94-14.86s1.21-11.08,3.6-14.43c2.38-3.33,5.66-4.95,10.05-4.95s7.77,1.75,10.35,5.34c2.59,3.61,3.9,8.61,3.9,14.86Z"/><path class="n" d="M278.16,72.42c-.03-.18-.13-.33-.27-.43-.15-.1-.33-.13-.5-.09-1.31,.33-2.47,.5-3.44,.5-1.31,0-3.05-.42-3.05-4.07v-25.57c0-5.32-1.18-9.35-3.49-11.97-2.34-2.64-6.09-3.98-11.16-3.98-5.87,0-11.75,2.17-17.5,6.45v-2.06c0-2.06-1.17-3.2-3.28-3.2h-9.07c-.35,0-.63,.28-.63,.63v4.79c0,.35,.28,.63,.63,.63h5.36v38.12h-5.36c-.35,0-.63,.28-.63,.63v4.75c0,.35,.28,.63,.63,.63h18.73c.35,0,.63-.28,.63-.63v-4.75c0-.35-.28-.63-.63-.63h-5.36V39.29c4.92-3.98,10.03-6,15.19-6,2.92,0,4.99,.71,6.14,2.12,1.18,1.45,1.78,3.92,1.78,7.34v26.34c0,6.83,2.97,10.3,8.84,10.3,2.22,0,4.5-.39,6.78-1.14,.29-.1,.47-.39,.43-.69l-.77-5.13Z"/><path class="n" d="M334.29,72.42c-.03-.17-.12-.33-.27-.43-.14-.1-.32-.13-.49-.1-1.49,.33-2.62,.5-3.37,.5-1.27,0-2.96-.42-2.96-4.07v-23.43c0-3.48-.44-6.48-1.32-8.93-2.14-6.07-7.55-9.15-16.08-9.15-5.37,0-11.1,1.4-17.03,4.17-.31,.14-.45,.51-.31,.82l2.22,5.13c.07,.16,.21,.29,.38,.35,.17,.06,.35,.04,.51-.05,4.78-2.67,9.16-4.02,12.99-4.02s6.51,.86,8.14,2.54c1.64,1.7,2.47,4.94,2.47,9.65v2.96c-10.63,.06-18.33,1.49-22.88,4.28-4.74,2.9-7.14,7.28-7.14,13.02,0,4.2,1.21,7.57,3.6,10.02,2.39,2.45,5.62,3.7,9.6,3.7,7.36,0,13.02-3.08,16.85-9.16,.32,6.08,3.25,9.16,8.73,9.16,2.16,0,4.42-.39,6.7-1.14,.29-.1,.47-.39,.42-.69l-.77-5.13Zm-29.79,.4c-2.44,0-4.34-.67-5.67-2-1.32-1.32-2-3.23-2-5.67,0-7.31,7.52-11.07,22.34-11.17v.38c-.17,5.92-1.69,10.53-4.54,13.71-2.83,3.15-6.24,4.75-10.14,4.75Z"/><path class="n" d="M455.55,34.1c-4.04-4.83-9.54-7.28-16.35-7.28s-12.15,2.29-15.88,6.82c-3.7,4.49-5.58,10.88-5.58,19s2.02,14.68,6,19.48c4.01,4.83,9.5,7.28,16.31,7.28s12.17-2.29,15.92-6.81c3.73-4.49,5.62-10.88,5.62-19.01s-2.03-14.68-6.05-19.48Zm-1.97,19.39c0,6.25-1.23,11.12-3.64,14.47-2.41,3.34-5.68,4.96-10.01,4.96s-7.7-1.76-10.31-5.38c-2.62-3.64-3.94-8.63-3.94-14.86s1.21-11.08,3.6-14.43c2.38-3.33,5.66-4.95,10.05-4.95s7.77,1.75,10.35,5.34c2.59,3.61,3.9,8.61,3.9,14.86Z"/><path class="n" d="M506.62,57.31c-1.88-2.17-4.18-3.87-6.85-5.04-2.61-1.14-5.25-2.24-7.85-3.26-2.55-1-4.73-2.24-6.5-3.71-1.69-1.39-2.51-3.11-2.51-5.24s.8-3.72,2.44-4.92c1.68-1.23,4.33-1.85,7.88-1.85s7.62,1.04,11.96,3.1c.15,.07,.33,.08,.49,.02,.16-.06,.29-.18,.36-.34l2.14-4.96c.14-.32,0-.69-.33-.83-5.31-2.3-10.56-3.47-15.6-3.47s-9.3,1.18-12.48,3.5c-3.24,2.37-4.88,5.72-4.88,9.96,0,3.22,.97,6,2.89,8.28,1.88,2.23,4.2,3.96,6.9,5.13,2.6,1.13,5.26,2.23,7.89,3.26,2.55,1,4.74,2.23,6.5,3.67,1.68,1.37,2.5,3.1,2.5,5.28s-.82,3.88-2.49,5.19c-1.7,1.33-4.19,2-7.39,2-5.73,0-9.44-3.21-11.37-9.81-.09-.32-.43-.52-.75-.44l-5.9,1.37c-.34,.08-.55,.42-.47,.76,1.06,4.57,3.22,8.16,6.43,10.66,3.21,2.5,7.44,3.77,12.58,3.77s9.34-1.22,12.49-3.64c3.2-2.45,4.82-5.9,4.82-10.25,0-3.22-.97-5.98-2.89-8.2Z"/><path class="n" d="M405.64,72.41c-.03-.17-.13-.33-.28-.42-.15-.1-.33-.13-.5-.09-1.31,.33-2.44,.5-3.35,.5-1.34,0-3.13-.42-3.13-4.07V31.29c0-2.12-1.14-3.28-3.2-3.28h-20.37c-8.57,0-13.44,7.72-15.53,12.15v-8.87c0-2.12-1.17-3.28-3.28-3.28h-9.07c-.35,0-.63,.28-.63,.63v4.45c0,.32,.24,.59,.56,.63l5.43,.62v37.85h-5.36c-.35,0-.63,.28-.63,.63v4.75c0,.35,.28,.63,.63,.63h21.3c.35,0,.63-.28,.63-.63v-4.75c0-.35-.28-.63-.63-.63h-7.92v-21.53c.64-9.21,8.25-16.43,17.4-16.6h12.75v35.03c0,6.83,2.77,10.3,8.24,10.3,2.5,0,4.98-.38,7.37-1.14,.3-.09,.48-.4,.43-.7l-.85-5.13Z"/></g><g><path class="l" d="M71.53,2.28c-1.46-1.51-3.22-2.28-5.23-2.28s-3.78,.76-5.29,2.27c-1.5,1.5-2.27,3.28-2.27,5.29s.77,3.77,2.28,5.24c1.5,1.45,3.28,2.19,5.28,2.19s3.76-.74,5.22-2.2c1.46-1.46,2.2-3.22,2.2-5.22s-.74-3.77-2.19-5.28Z"/><path class="p" d="M399.8,2.28c-1.46-1.51-3.22-2.28-5.23-2.28s-3.78,.76-5.29,2.27c-1.5,1.5-2.27,3.28-2.27,5.29s.77,3.77,2.28,5.24c1.5,1.45,3.28,2.19,5.28,2.19s3.76-.74,5.22-2.2c1.46-1.46,2.2-3.22,2.2-5.22s-.74-3.77-2.19-5.28Z"/><path class="q" d="M150.75,2.28c-1.46-1.51-3.22-2.28-5.23-2.28s-3.78,.76-5.29,2.27c-1.5,1.5-2.27,3.28-2.27,5.29s.77,3.77,2.28,5.24c1.5,1.45,3.28,2.19,5.28,2.19s3.76-.74,5.22-2.2c1.46-1.46,2.2-3.22,2.2-5.22s-.74-3.77-2.19-5.28Z"/></g></g><g><g><path class="n" d="M16.52,135.05h-1.91c-1.25,0-2.33,.2-3.22,.58-.01-.33-.28-.58-.61-.58h-1.91c-.34,0-.61,.27-.61,.61v20.7c0,.34,.27,.61,.61,.61h1.91c.34,0,.61-.27,.61-.61v-15.06c0-2.18,.99-3.16,3.22-3.16h1.91c.34,0,.61-.27,.61-.61v-1.88c0-.34-.27-.61-.61-.61Z"/><path class="n" d="M26.38,135.05c-4.15,0-6.35,2.16-6.35,6.25v9.41c0,4.09,2.19,6.25,6.35,6.25s6.35-2.16,6.35-6.25c0-.34-.27-.61-.61-.61h-1.91c-.34,0-.61,.27-.61,.61,0,2.18-.99,3.16-3.22,3.16s-3.22-.97-3.22-3.16v-3.16h8.96c.34,0,.61-.27,.61-.61v-5.65c0-4.09-2.2-6.25-6.35-6.25Zm-3.22,9.41v-3.16c0-2.18,.99-3.16,3.22-3.16s3.22,.97,3.22,3.16v3.16h-6.44Z"/><path class="n" d="M44.63,138.14c2.23,0,3.22,.97,3.22,3.16,0,.34,.27,.61,.61,.61h1.91c.34,0,.61-.27,.61-.61,0-4.09-2.19-6.25-6.35-6.25s-6.35,2.16-6.35,6.25c0,2.52,1.74,4.51,5.16,5.93,3.64,1.51,4.41,2.73,4.41,3.48,0,2.18-.99,3.16-3.22,3.16s-3.22-.97-3.22-3.16c0-.34-.27-.61-.61-.61h-1.91c-.34,0-.61,.27-.61,.61,0,4.09,2.2,6.25,6.35,6.25s6.35-2.16,6.35-6.25c0-2.52-1.74-4.51-5.16-5.93-3.64-1.51-4.41-2.73-4.41-3.48,0-2.18,.99-3.16,3.22-3.16Z"/><rect class="n" x="56.15" y="135.05" width="3.13" height="21.92" rx=".61" ry=".61"/><rect class="n" x="56.15" y="129.4" width="3.13" height="3.1" rx=".61" ry=".61"/><path class="n" d="M76.93,123.76h-1.91c-.34,0-.61,.27-.61,.61v11.27c-.89-.39-1.97-.58-3.22-.58-4.15,0-6.35,2.16-6.35,6.25v9.41c0,4.09,2.19,6.25,6.35,6.25,1.25,0,2.33-.2,3.22-.58,.01,.33,.28,.58,.61,.58h1.91c.34,0,.61-.27,.61-.61v-31.99c0-.34-.27-.61-.61-.61Zm-2.52,17.54v9.41c0,2.18-.99,3.16-3.22,3.16s-3.22-.97-3.22-3.16v-9.41c0-2.18,.99-3.16,3.22-3.16s3.22,.97,3.22,3.16Z"/><path class="n" d="M89.44,135.05c-4.15,0-6.35,2.16-6.35,6.25v9.41c0,4.09,2.2,6.25,6.35,6.25s6.35-2.16,6.35-6.25c0-.34-.27-.61-.61-.61h-1.91c-.34,0-.61,.27-.61,.61,0,2.18-.99,3.16-3.22,3.16s-3.22-.97-3.22-3.16v-3.16h8.96c.34,0,.61-.27,.61-.61v-5.65c0-4.09-2.19-6.25-6.35-6.25Zm-3.22,9.41v-3.16c0-2.18,.99-3.16,3.22-3.16s3.22,.97,3.22,3.16v3.16h-6.44Z"/><path class="n" d="M107.69,135.05c-1.25,0-2.33,.2-3.22,.58-.01-.32-.28-.58-.61-.58h-1.91c-.34,0-.61,.27-.61,.61v20.7c0,.34,.27,.61,.61,.61h1.91c.34,0,.61-.27,.61-.61v-15.06c0-2.18,.99-3.16,3.22-3.16s3.22,.97,3.22,3.16v15.06c0,.34,.27,.61,.61,.61h1.91c.34,0,.61-.27,.61-.61v-15.06c0-4.09-2.2-6.25-6.35-6.25Z"/><path class="n" d="M125.94,138.14c2.23,0,3.22,.97,3.22,3.16,0,.34,.27,.61,.61,.61h1.91c.34,0,.61-.27,.61-.61,0-4.09-2.19-6.25-6.35-6.25s-6.35,2.16-6.35,6.25v9.41c0,4.09,2.2,6.25,6.35,6.25s6.35-2.16,6.35-6.25c0-.34-.27-.61-.61-.61h-1.91c-.34,0-.61,.27-.61,.61,0,2.18-.99,3.16-3.22,3.16s-3.22-.97-3.22-3.16v-9.41c0-2.18,.99-3.16,3.22-3.16Z"/><rect class="n" x="137.46" y="129.4" width="3.13" height="3.1" rx=".61" ry=".61"/><rect class="n" x="137.46" y="135.05" width="3.13" height="21.92" rx=".61" ry=".61"/><path class="n" d="M158.23,135.05h-1.91c-.33,0-.59,.26-.61,.58-.89-.39-1.97-.58-3.22-.58-4.15,0-6.35,2.16-6.35,6.25v9.41c0,4.09,2.19,6.25,6.35,6.25,1.25,0,2.33-.2,3.22-.58,.01,.33,.28,.58,.61,.58h1.91c.34,0,.61-.27,.61-.61v-20.7c0-.34-.27-.61-.61-.61Zm-2.52,6.25v9.41c0,2.18-.99,3.16-3.22,3.16s-3.22-.97-3.22-3.16v-9.41c0-2.18,.99-3.16,3.22-3.16s3.22,.97,3.22,3.16Z"/><path class="n" d="M171.93,144.79c-3.64-1.51-4.41-2.73-4.41-3.48,0-2.18,.99-3.16,3.22-3.16s3.22,.97,3.22,3.16c0,.34,.27,.61,.61,.61h1.91c.34,0,.61-.27,.61-.61,0-4.09-2.19-6.25-6.35-6.25s-6.35,2.16-6.35,6.25c0,2.52,1.74,4.51,5.16,5.93,3.64,1.51,4.41,2.73,4.41,3.48,0,2.18-.99,3.16-3.22,3.16s-3.22-.97-3.22-3.16c0-.34-.27-.61-.61-.61h-1.91c-.34,0-.61,.27-.61,.61,0,4.09,2.2,6.25,6.35,6.25s6.35-2.16,6.35-6.25c0-2.52-1.74-4.51-5.16-5.93Z"/></g><path class="e" d="M192.27,156.05c-1.2-.67-2.01-1.46-2.43-2.39s-.6-1.89-.55-2.89c.05-1,.24-1.99,.55-2.97,.31-.98,.63-1.82,.94-2.54,.47-1.23,1.07-2.41,1.8-3.55,.73-1.13,1.53-2.13,2.39-3.01s1.76-1.58,2.71-2.12c.94-.54,1.88-.84,2.82-.89v-.08c.78-.26,1.57-.33,2.35-.23,.68,.1,1.36,.36,2.04,.77,.68,.41,1.28,1.18,1.8,2.31,.05,.1,.08,.21,.08,.31,0,.26-.08,.41-.24,.46-.05,0-.09,.01-.12,.04-.03,.03-.09,.04-.2,.04,0,.26-.18,.28-.55,.08-.21-.1-.39-.2-.55-.31h-.08l-1.1-.54c-.37-.2-.77-.35-1.22-.42-.44-.08-.9-.04-1.37,.11-.05,.05-.1,.08-.16,.08-.99,.41-2.09,1.36-3.29,2.85-.52,.62-.95,1.14-1.29,1.58-.34,.44-.65,.91-.94,1.43-.29,.51-.59,1.09-.9,1.73-.31,.64-.65,1.5-1.02,2.58-.42,1.08-.68,1.9-.78,2.47s-.16,.98-.16,1.23c0,.31,.08,.49,.23,.54,.78-.15,1.66-.71,2.63-1.66,.97-.95,1.92-2.02,2.86-3.2,.94-1.18,1.78-2.35,2.51-3.51,.73-1.16,1.23-1.97,1.49-2.43,.1-.26,.33-.67,.67-1.23,.34-.56,.67-.9,.98-1,.1-.1,.25-.18,.43-.23,.18-.05,.35-.03,.51,.08,.26,.21,.44,.44,.55,.69l.47,.54,.16,.15c.1,.1,.22,.19,.35,.27,.13,.08,.25,.22,.35,.42,.1,.41,.13,.72,.08,.92,0,.21-.08,.39-.24,.54,0,.1-.01,.19-.04,.27-.03,.08-.04,.17-.04,.27l-.24,.54v.15c-.16,.77-.26,1.36-.31,1.77-.05,.41-.1,.72-.16,.93-.05,.21-.08,.36-.08,.46-.05,.26-.13,.76-.24,1.5-.1,.75-.14,1.53-.12,2.35,.03,.82,.14,1.55,.35,2.2,.21,.64,.6,.96,1.17,.96,.52,0,1.28-.54,2.27-1.62,.99-1.08,2.02-2.32,3.1-3.74,1.07-1.41,2.06-2.83,2.98-4.24,.91-1.41,1.58-2.48,2-3.2l.08-.08c.05-.05,.09-.1,.12-.15,.03-.05,.09-.13,.2-.23,.1-.1,.21-.15,.31-.15,.21,.05,.29,.21,.24,.46,0,.21-.04,.39-.12,.54-.08,.15-.17,.31-.27,.46,.21-.31,.36-.36,.47-.15v.23h-.16l-.08,.08c-.05,.05-.08,.1-.08,.15v.08c.05,.05,.1,.08,.16,.08s.08-.03,.08-.08l.08-.08,.08-.08c0,.1-.05,.21-.16,.31,.26-.15,.36-.1,.31,.15,0,.15-.03,.26-.08,.31v.08c-.05,.1-.08,.18-.08,.23s-.03,.1-.08,.15l-.16,.39c-.05,.05-.08,.1-.08,.15-.05,.15-.18,.38-.39,.69-.37,.62-.85,1.36-1.45,2.24-.6,.87-1.23,1.76-1.88,2.66-.65,.9-1.32,1.76-2,2.58-.68,.82-1.28,1.49-1.8,2-.57,.57-1.16,.95-1.76,1.16-.6,.21-1.16,.31-1.69,.31-.57,0-1.17-.08-1.8-.23-.42-.15-.84-.36-1.25-.62-.37-.26-.76-.55-1.18-.89-.42-.33-.81-.76-1.17-1.27-.26-.31-.43-.78-.51-1.43-.08-.64-.12-1.28-.12-1.93s.01-1.21,.04-1.7c.03-.49,.04-.76,.04-.81-.05,.05-.33,.5-.82,1.35-.5,.85-1.4,2.27-2.7,4.28-.78,1.18-1.52,2-2.19,2.47-.68,.46-1.28,.75-1.8,.85-.57,.1-1.1,.03-1.57-.23Zm.47-10.71v.15h.31c.05,0,.08-.03,.08-.08,.05-.05,.08-.2,.08-.46v-.08h.08v-.31h-.08v-.08h-.08c-.05-.05-.13-.08-.24-.08l-.08,.08v.23c-.05,0-.05,.03,0,.08h.16c0,.05-.01,.09-.04,.12-.03,.03-.04,.06-.04,.11-.1,.1-.16,.18-.16,.23v.08Zm.55-1.77c-.05,0-.08,.05-.08,.15l.08,.08c.05,0,.08,.01,.08,.04s.03,.04,.08,.04,.08-.03,.08-.08h.08v-.23l-.16-.08h-.08c-.05,0-.08,.03-.08,.08Zm.39,.93c0-.1-.03-.15-.08-.15,0-.05-.03-.08-.08-.08h-.08l-.08,.08c-.05,0-.08,.03-.08,.08v.08c0,.05,.03,.08,.08,.08l.08,.08h.08c.05,0,.08-.03,.08-.08h.08v-.08Zm0-1.62c-.1,.1-.16,.18-.16,.23l.08,.08,.08,.08h.08c.05,0,.1-.03,.16-.08v-.08c.05,0,.08-.03,.08-.08v-.15l-.16-.15c-.1,0-.16,.05-.16,.15Zm.24-.39c.1,.1,.18,.15,.23,.15,.1,0,.2-.08,.27-.23,.08-.15,.12-.28,.12-.39,0-.05-.03-.1-.08-.15,0-.1-.1-.1-.31,0-.16,.15-.23,.31-.23,.46v.15Zm2.9-1.93c.37-.36,.6-.59,.71-.69,.1-.1,.16-.2,.16-.31l-.08-.08c0-.05-.03-.08-.08-.08-.21,0-.71,.49-1.49,1.46-.21,.15-.42,.44-.63,.85-.1,.26-.21,.44-.31,.54-.26,.1-.46,.36-.59,.77-.13,.41-.2,.67-.2,.77-.05,.05-.05,.1,0,.15h.16c.16,0,.3-.12,.43-.35,.13-.23,.25-.47,.35-.73l.16-.31,.16-.31c.05-.15,.18-.39,.39-.69,.31-.2,.52-.46,.63-.77l.08-.08,.16-.15Zm-2.35,1c-.05,0-.05,.03,0,.08h.08c.21,0,.36-.13,.47-.39,.05,0,.08,.03,.08,.08l.08-.08h.08v-.08c.05,0,.08-.03,.08-.08l-.08-.15c0-.05,.05-.13,.16-.23,0,.05,.03,.08,.08,.08h.08l.08-.08c.05,0,.08-.03,.08-.08,.05,0,.08-.03,.08-.08v-.15l-.08-.08,.24-.31v.15c.1,.1,.18,.08,.23-.08,.26,0,.39-.15,.39-.46l-.08-.08,.63-.62c.26-.26,.51-.49,.75-.69,.24-.2,.51-.38,.82-.54,.42-.2,.73-.33,.94-.39h.39c.16,0,.26-.03,.31-.08,.1,0,.16-.05,.16-.15l-.08-.08c-.05,0-.1-.01-.16-.04-.05-.03-.13-.04-.23-.04s-.24,.01-.39,.04c-.16,.03-.29,.04-.39,.04-.21,.1-.43,.21-.67,.31-.24,.1-.43,.21-.59,.31l-.08,.08c-.16,.1-.31,.19-.47,.27-.16,.08-.31,.19-.47,.35-.1,.05-.25,.17-.43,.35-.18,.18-.38,.4-.59,.66,0,.05-.01,.08-.04,.08-.03,0-.04,.03-.04,.08l-.23,.31c-.26,.26-.5,.54-.71,.85-.21,.31-.37,.62-.47,.93Zm1.8-1.39c0,.05,.03,.08,.08,.08,.1,0,.16-.03,.16-.08s-.05-.08-.16-.08l-.08,.08Zm1.96-1.08c.05,0,.08-.01,.08-.04s-.03-.04-.08-.04c0-.1-.05-.15-.16-.15h-.16c0,.05-.03,.08-.08,.08-.05,.05-.08,.13-.08,.23,.1,.1,.18,.15,.24,.15l.08-.08c.05,0,.08-.03,.08-.08,.05,0,.08-.03,.08-.08Zm.63-.62c-.05,0-.08-.03-.08-.08s-.05-.08-.16-.08v.08h-.08c-.05,.05-.08,.1-.08,.15v.08c.05,.05,.1,.08,.16,.08v.08h.08l.08-.08h.08v-.23Zm5.41,11.49c0-.05-.03-.08-.08-.08-.26,0-.42,.03-.47,.08,.05,.05,.08,.1,.08,.15,0,.1,.03,.18,.08,.23h.39v-.08h.08l.08-.08v-.23h-.16Zm-.08,.77h-.23c-.05,0-.08,.03-.08,.08h-.08l.08,.08c.05,.05,.1,.08,.16,.08h.24v-.08l-.08-.08v-.08Zm.24-1.54l.08-.08h-.08l-.16-.08h-.08c-.1,0-.16,.03-.16,.08h-.08v.08c0,.1,.1,.13,.31,.08v-.08h.16Zm1.33-6.09c.1-.26,.16-.47,.16-.65s.05-.4,.16-.66v-.08l-.08-.08h-.08c-.1,.05-.21,.21-.31,.46-.1,.26-.21,.54-.31,.85-.1,.36-.18,.77-.23,1.23-.11,.31-.16,.59-.16,.85-.11,.15-.16,.34-.16,.54s-.03,.41-.08,.62c-.21,.1-.33,.23-.35,.39-.03,.15-.04,.31-.04,.46-.05,.1-.08,.18-.08,.23-.05,.1-.1,.23-.16,.39-.05,.15-.05,.28,0,.38,0,.21,.03,.31,.08,.31,0,.05,.1,.08,.31,.08,.16-.05,.23-.23,.23-.54l-.08-.08c.16-.31,.23-.64,.23-1,0-.15,.03-.32,.08-.5,.05-.18,.08-.37,.08-.58v-.08c0-.05,.03-.1,.08-.15,0-.15,.05-.28,.16-.39-.05-.1-.05-.19,0-.27,.05-.08,.05-.14,0-.19,.21-.26,.3-.53,.27-.81-.03-.28,.06-.53,.27-.73Zm6.27,8.4l.08,.08c.1,0,.24-.09,.39-.27,.16-.18,.24-.32,.24-.42v-.08l-.08-.08c-.16,0-.29,.13-.39,.38l-.24,.31v.08Zm.94-1.31v.15h.08c.05,0,.13-.04,.24-.12,.1-.08,.16-.17,.16-.27v-.08l-.08-.08c-.05,0-.13,.05-.24,.15-.05,0-.08,.03-.08,.08-.05,.05-.08,.1-.08,.15Zm.63-.85v.08c.05,0,.08,.03,.08,.08,.05,0,.08-.03,.08-.08,.16,0,.24-.05,.24-.15v-.08c-.05-.05-.11-.08-.16-.08h-.08c0,.05-.03,.08-.08,.08v.08l-.08,.08Zm.94-1.23l.08,.08h.08c.1,0,.18-.04,.24-.12,.05-.08,.1-.14,.16-.19,.16-.15,.24-.28,.24-.39s-.05-.15-.16-.15-.22,.11-.35,.35c-.13,.23-.22,.35-.27,.35v.08Zm.94-1.16h.08c.05,0,.13-.05,.24-.15,.1-.1,.16-.18,.16-.23l-.08-.08-.08-.08c-.05,0-.11,.03-.16,.08v.08l-.08,.08c-.05,.05-.08,.1-.08,.15v.15Zm.63-.93c0,.05,.03,.08,.08,.08,.1,0,.16-.05,.16-.15h.08c0-.05,.03-.1,.08-.15l-.16-.15c-.05,0-.11,.03-.16,.08v.08l-.08,.08v.15Zm.94-1.46c-.05,.05-.08,.1-.08,.15-.05,0-.05,.03,0,.08v.08h.16l.08-.08,.08-.08v-.23h-.08c-.11,0-.16,.03-.16,.08Zm.78-.62c.1-.15,.13-.26,.08-.31l-.08-.08c-.05,0-.08,.01-.08,.04s-.03,.04-.08,.04l-.16,.15c-.05,.05-.08,.1-.08,.15v.08c.1,.1,.18,.15,.24,.15l.08-.08c0-.05,.03-.08,.08-.08v-.08Z"/><path class="p" d="M224.17,147.03c-.31-.05-.52-.15-.63-.31-.31-.2-.08-.49,.71-.85-.05,0-.13-.03-.24-.08l-.47-.23c-.1-.05-.06-.14,.12-.27,.18-.13,.4-.24,.67-.35,.26-.15,.6-.28,1.02-.38,1.2-.62,2.06-1.3,2.59-2.04,.52-.74,.89-1.43,1.1-2.04,.21-.72,.29-1.44,.24-2.16-.11-.36-.29-.56-.55-.62-.26-.05-.44-.05-.55,0-.58,.31-1.48,1.05-2.71,2.24-1.23,1.18-2.71,3.21-4.43,6.09-.31,.93-.64,1.88-.98,2.85-.34,.98-.64,1.89-.9,2.74-.26,.85-.46,1.62-.59,2.31-.13,.69-.14,1.22-.04,1.58,0,.31,.03,.59,.08,.85,.05,.26,.08,.5,.08,.73s.05,.4,.16,.5c0,.05-.03,.1-.08,.15-.16,.15-.26,.23-.31,.23-.21,.05-.46,.05-.75,0-.29-.05-.48-.23-.59-.54h-.08c-.21,.05-.34,0-.39-.15-.05-.15-.1-.28-.16-.39,0-.05-.03-.03-.08,.08-.05,.1-.13,.18-.24,.23-.05,.05-.13,.03-.23-.08-.05-.05-.08-.1-.08-.15-.26-.46-.43-.95-.51-1.46-.08-.51-.14-1.05-.2-1.62,0-.72,.04-1.4,.12-2.04,.08-.64,.17-1.14,.27-1.5,.05-.1,.08-.23,.08-.39,.57-2.16,1.19-4.28,1.84-6.36,.65-2.08,1.35-4.17,2.08-6.28,0-.05,.01-.09,.04-.11,.03-.03,.04-.09,.04-.19,.21-.51,.4-1.08,.59-1.7,.18-.62,.38-1.13,.59-1.54,.1-.1,.16-.2,.16-.31,.05-.05,.08-.09,.08-.12,0-.03,.03-.06,.08-.11v-.15c.05-.1,.06-.23,.04-.39-.03-.15,.06-.23,.27-.23v-.08c.21-.05,.44-.14,.7-.27,.26-.13,.63-.11,1.1,.04,.47,.15,.78,.27,.94,.35,.16,.08,.31,.22,.47,.42,.16,.21,.3,.38,.43,.54,.13,.15,.25,.36,.35,.62,0,.1,.01,.18,.04,.23,.03,.05,.04,.1,.04,.15,.05,.1,.09,.21,.12,.31,.02,.1,.04,.26,.04,.46-.05,.26-.11,.42-.16,.5-.05,.08-.16,.22-.31,.42-.21,.21-.34,.41-.39,.62-.05,.21-.23,.54-.55,1-.11,.26-.27,.57-.51,.92-.24,.36-.43,.72-.59,1.08-.11,.21-.16,.34-.16,.39,.57-.82,1.2-1.63,1.88-2.43,.68-.8,1.38-1.43,2.12-1.89,.63-.41,1.15-.71,1.57-.89,.42-.18,.76-.29,1.02-.35,.05-.05,.16-.08,.31-.08h.63c.31,0,.78,.13,1.41,.39,.31,0,.57,.03,.78,.08,.31,.05,.55,.21,.7,.46,.16,.26,.27,.54,.35,.85,.08,.31,.13,.63,.16,.96,.03,.34,.04,.58,.04,.73,.1,1.03-.03,2-.39,2.93-.31,.82-.86,1.68-1.65,2.58-.78,.9-1.96,1.68-3.53,2.35-.57,.26-1.21,.49-1.92,.69-.71,.21-1.48,.36-2.31,.46Zm-7.76,8.48v.23c.05,0,.08,.03,.08,.08h.16l.08-.08,.08-.08v-.23c.11,0,.18-.03,.24-.08v-.31l-.16-.08h-.16c.05-.05,.08-.09,.08-.12s.03-.06,.08-.11v-.08c.05-.05,.08-.1,.08-.15-.05,0-.08-.03-.08-.08v-.62h.08v-.23h-.08c0-.2,.03-.31,.08-.31v-.62c0-.1,.01-.19,.04-.27,.03-.08,.04-.14,.04-.19,.1-.05,.18-.22,.23-.5,.05-.28,.05-.47,0-.58l-.08-.08c-.1-.1-.18-.15-.24-.15h-.08v.15h-.08c-.05,.1-.1,.26-.16,.46-.05,.21-.05,.36,0,.46v.31c0,.31-.03,.51-.08,.62v.08c-.05,.26-.08,.64-.08,1.16v.38c-.05,.15-.05,.28,0,.39v.39l.08,.08c-.05,0-.1,.03-.16,.08v.08Zm.7,.46l-.08-.15h-.08c-.1,0-.18,.03-.23,.08v.15h-.24c-.05,.05-.08,.1-.08,.15v.15h.16c.16,0,.23-.03,.23-.08v-.08h.08v-.08h.23v-.15Zm-.16-5.4c0,.05,.03,.08,.08,.08l.16,.08v-.08h.08l.08-.08v-.23l-.08-.08c-.1-.05-.18-.05-.23,0l-.08,.08v.23Zm.24-1.16c-.21,.21-.24,.36-.08,.46v.08h.24c.1,0,.16-.08,.16-.23,.05-.05,.08-.13,.08-.23v-.08l-.08-.08c-.1-.05-.21-.03-.31,.08Zm.63,3.62c.05-.1,.08-.24,.08-.42s-.03-.29-.08-.35c0-.05-.03-.08-.08-.08-.1,0-.18,.08-.23,.23-.05,.15-.08,.39-.08,.69v.46c-.05,.21-.08,.4-.08,.58s-.03,.37-.08,.58v.15c0,.51,.03,.87,.08,1.08v.31c0,.1,.01,.22,.04,.35,.03,.13,.07,.22,.12,.27,0,.05,.03,.08,.08,.08h.08c.05-.05,.08-.13,.08-.23v-.31c0-.46-.03-.74-.08-.85,0-.1,.03-.18,.08-.23,0-.1,.01-.18,.04-.23,.03-.05,.01-.13-.04-.23v-.54c-.1-.51-.08-.95,.08-1.31Zm5.25-11.18v-.08h-.08l-.08-.08-.08,.08-.08,.08v.15l.08,.08h.16l.08-.15v-.08Zm.47-.54v-.23c0-.05-.05-.08-.16-.08h-.16v.08l-.08,.08v.15c.05,.05,.1,.08,.16,.08,.1,0,.18-.03,.23-.08Zm.31-.69c.05,0,.05-.03,0-.08-.05,0-.08-.01-.08-.04s-.03-.04-.08-.04l-.08,.08v.15c-.05,0-.05,.03,0,.08h.08c.1,0,.16-.03,.16-.08v-.08Zm.55-.62c.05-.05,.05-.13,0-.23h-.16l-.08,.08c-.05,.05-.05,.1,0,.15l.08,.08h.08l.08-.08Zm.47-.62c.05-.05,.05-.1,0-.15h-.08c-.1,0-.21,.05-.31,.15,0,.1,.03,.15,.08,.15,0,.05,.03,.08,.08,.08l.16-.08c0-.05,.03-.08,.08-.08v-.08Zm.23-.31c.1,0,.21-.06,.31-.19,.1-.13,.16-.24,.16-.35s-.05-.15-.16-.15l-.16,.08-.16,.15c-.05,.05-.08,.13-.08,.23-.05,0-.08,.03-.08,.08s.03,.1,.08,.15h.08Zm1.25-1.23c-.1-.1-.18-.13-.23-.08l-.08,.08v.15l.08,.08h.08c.05,0,.08-.03,.08-.08l.08-.08v-.08Zm.55-.31c.05-.05,.05-.13,0-.23h-.08c-.1,0-.21,.05-.31,.15v.15l.16,.08h.08v-.08h.08l.08-.08Zm.86-.69c-.16-.15-.23-.13-.23,.08l-.16,.15h-.16c-.05,0-.08,.05-.08,.15l.08,.08c.05,0,.14-.03,.27-.08,.13-.05,.22-.13,.27-.23v-.15Zm1.41,7.25c-.21,.1-.31,.23-.31,.39,.1,.1,.18,.15,.24,.15h.08c.16,0,.24-.08,.24-.23s-.05-.26-.16-.31h-.08Zm.71-.15l-.08-.08-.08-.08h-.08v.08h-.08l-.08,.08v.15c0,.05,.05,.08,.16,.08h.24v-.23Zm.39-.15c0-.05-.03-.08-.08-.08-.05-.05-.08-.1-.08-.15h-.16c-.05,0-.08,.03-.08,.08v.15h.08c0,.1,.03,.15,.08,.15h.08v-.08h.08l.08-.08Zm-.08-3.24c0,.05,.03,.1,.08,.15h.08c.1,0,.21-.08,.31-.23,0-.05,.01-.1,.04-.15,.03-.05,.04-.1,.04-.15l-.08-.08h-.31c-.05,.05-.08,.13-.08,.23-.05,.05-.08,.13-.08,.23Zm.16,1.39c0,.05,.02,.08,.08,.08h.24v-.23h-.08c0-.05-.03-.08-.08-.08h-.16c0,.05-.03,.08-.08,.08v.08l.08,.08Zm.16-2.31c0,.21,.03,.33,.08,.38h.08c.1,0,.16-.13,.16-.38,.1,0,.16-.03,.16-.08v-.31c0-.05-.01-.09-.04-.12-.03-.02-.04-.06-.04-.11-.05-.62-.18-.93-.39-.93l-.16,.15v.08c.05,.05,.08,.13,.08,.23v.08h.08v1Zm.47,3.31c-.11-.1-.18-.15-.24-.15l-.16,.08-.16,.15c0,.21,.1,.33,.31,.38,.1,0,.18-.13,.24-.38v-.08Zm-.24-1.77l-.08,.08v.15h-.08v.08c.05,.05,.1,.08,.16,.08l.08,.08c.05,0,.08-.03,.08-.08,.05,0,.1-.03,.16-.08,0-.1-.03-.18-.08-.23l-.16-.08h-.08Zm.31-.08c.16-.05,.31-.23,.47-.54s.21-.57,.16-.77c.05-.2,.08-.49,.08-.85v-.31c.05-.31,0-.64-.16-1l-.08-.15v-.08h-.08c-.11,0-.16,.03-.16,.08-.11,.1-.16,.23-.16,.39,0,.1,.05,.21,.16,.31,0,.1,.03,.15,.08,.15v.08c0,.15,.01,.33,.04,.54,.03,.21,.01,.39-.04,.54-.05,.21-.1,.39-.16,.54-.05,.15-.1,.34-.16,.54-.05,.1-.08,.17-.08,.19s-.03,.09-.08,.19v.15h.16Zm1.8-1.77v-.39c0-.87-.11-1.34-.31-1.39l-.08-.08-.08,.08c-.05,.1-.08,.27-.08,.5s.03,.4,.08,.5c.05,.26,.05,.49,0,.69v.08c-.11,.72-.21,1.17-.31,1.35-.11,.18-.18,.3-.24,.35h-.08v.08l-.08,.08h.08c-.05,0-.08,.01-.08,.04s.03,.04,.08,.04c0,.05-.01,.09-.04,.12-.03,.03-.04,.06-.04,.12-.05,0-.08,.03-.08,.08-.05,.05-.08,.1-.08,.15s-.05,.13-.16,.23l-.08,.08-.08,.08v.08c-.1,0-.16,.08-.16,.23h-.08v.08c-.05,0-.08,.03-.08,.08v.08c0,.05,.03,.08,.08,.08l.08,.08c.05,0,.08-.03,.08-.08h.16v-.15l.16-.15,.08-.08c.05-.05,.1-.13,.16-.23,.05-.1,.1-.2,.16-.31h.08v-.08c.1-.1,.16-.18,.16-.23,.05,0,.1-.02,.16-.08v-.15l.08-.08h-.08v-.08h.08c.1,0,.16-.05,.16-.15,.1-.1,.16-.23,.16-.38v-.08c.1-.31,.16-.54,.16-.69s.03-.28,.08-.38v-.08Z"/><path class="h" d="M246.12,128.76c-1.05,2.67-2.04,5.35-2.98,8.02-.94,2.67-1.86,5.4-2.74,8.17-.26,1.03-.54,2.12-.82,3.28-.29,1.16-.55,2.27-.78,3.35-.24,1.08-.4,2.06-.51,2.93-.1,.87-.1,1.54,0,2,0,.46,.03,.87,.08,1.23,.05,.31,.09,.63,.12,.96,.03,.33,.07,.55,.12,.65-.05,.05-.08,.1-.08,.15-.05,.05-.08,.1-.08,.15s-.05,.08-.16,.08-.39-.14-.86-.42c-.47-.28-.76-.58-.86-.89-.16,.1-.26,.06-.31-.11-.05-.18-.1-.3-.16-.35,0-.1-.01-.1-.04,0-.03,.1-.09,.18-.2,.23-.05,.05-.13,.03-.24-.08-.05-.05-.08-.1-.08-.15-.16-.46-.27-.82-.35-1.08s-.12-.64-.12-1.16c0-.77,.03-1.48,.08-2.12,.05-.64,.13-1.14,.24-1.5,0-.1,.01-.18,.04-.23,.03-.05,.04-.1,.04-.15,.58-2.83,1.23-5.65,1.96-8.48,.73-2.83,1.54-5.63,2.43-8.4,.31-1.08,.65-2.16,1.02-3.24,.36-1.08,.76-2.16,1.17-3.24-1.05,.21-2.08,.41-3.1,.62-1.02,.21-2.08,.44-3.18,.69-.21,.1-.42,.15-.63,.15-.16,0-.31-.03-.47-.08s-.21-.15-.16-.31c0-.2,.07-.36,.2-.46,.13-.1,.25-.2,.35-.31,.16-.1,.34-.15,.55-.15,.52-.2,1.15-.41,1.88-.62,1.25-.36,2.98-.82,5.17-1.39,.42-1.08,.84-2.17,1.25-3.28,.42-1.1,.84-2.2,1.25-3.28,.05-.05,.08-.09,.08-.12,0-.03,.03-.06,.08-.11v-.15c0-.05,.03-.08,.08-.08,.1-.1,.14-.26,.12-.46-.03-.2,.04-.33,.2-.39,.16,0,.34-.08,.55-.23,.21-.15,.5-.15,.86,0,.36,.15,.61,.28,.74,.39,.13,.1,.25,.26,.35,.46,.1,.21,.21,.39,.31,.54,.1,.15,.18,.36,.23,.62,.05,.26,.1,.45,.16,.58,.05,.13,.05,.32,0,.58-.05,.26-.1,.44-.16,.54-.05,.1-.13,.23-.23,.39-.16,.21-.24,.4-.24,.58s-.13,.5-.39,.96c-.11,.26-.2,.5-.27,.73s-.17,.5-.27,.81c2.61-.46,5.44-.78,8.47-.96s6.12-.06,9.25,.35c1.04,0,1.96,.08,2.74,.23,.68,.1,1.28,.3,1.8,.58,.52,.28,.71,.63,.55,1.04l.31,.15c.21,.1,.24,.26,.08,.46-.05,.1-.55,.05-1.49-.15-.94-.2-2.38-.39-4.31-.54-1.93-.15-4.4-.2-7.41-.15-3.01,.05-6.6,.39-10.78,1l-.47,1.16Zm-7.68,14.26c.05-.1,.12-.24,.2-.42,.08-.18,.14-.37,.2-.58,0-.1,.05-.26,.16-.46,.1-.2,.21-.46,.31-.77,.21-.56,.39-1.12,.55-1.66,.16-.54,.31-1.09,.47-1.66,.1-.41,.22-.84,.35-1.27,.13-.44,.27-.86,.43-1.27,0-.2,.05-.41,.16-.62l.31-.93c.1-.31,.18-.59,.24-.85v-.08h-.08c-.05,0-.1,.05-.16,.15-.05,.1-.21,.44-.47,1-.1,.31-.2,.59-.27,.85-.08,.26-.14,.38-.2,.38-.05,.1-.12,.28-.2,.54-.08,.26-.12,.44-.12,.54-.05,.1-.08,.18-.08,.23s-.03,.13-.08,.23c0,.15-.05,.34-.16,.54l-.16,.46c-.26,.57-.48,1.16-.67,1.77-.18,.62-.38,1.21-.59,1.77-.1,.52-.21,.93-.31,1.23-.1,.36-.2,.71-.27,1.04-.08,.33-.17,.71-.27,1.12-.05,.05-.08,.13-.08,.23-.05,.1-.08,.22-.08,.35s-.03,.24-.08,.35c-.1,.31-.18,.51-.23,.62,0,.21-.03,.34-.08,.39-.05,.1-.1,.26-.16,.46-.05,.21-.05,.33,0,.38,0,.05,.03,.08,.08,.08,.1,0,.21-.2,.31-.62,.16-.41,.3-.82,.43-1.23,.13-.41,.25-.82,.35-1.23,.05-.2,.09-.39,.12-.54,.03-.15,.07-.33,.12-.54Zm1.41-.62c0-.05,.01-.09,.04-.12,.03-.03,.04-.06,.04-.12,.1-.36,.2-.71,.27-1.04,.08-.33,.17-.68,.27-1.04,.1-.31,.18-.56,.24-.77,.05-.1,.13-.31,.23-.62,.21-.51,.37-1.03,.47-1.54,0-.05-.03-.1-.08-.15-.11,0-.22,.14-.35,.42-.13,.28-.25,.6-.35,.96-.16,.41-.29,.85-.39,1.31v.08c-.26,.82-.47,1.54-.63,2.16-.16,.36-.29,.73-.39,1.12-.1,.38-.21,.78-.31,1.19v.08h.08c.31,0,.6-.64,.86-1.93Zm.71-.15c.05,0,.08-.05,.08-.15l-.08-.08c-.11,0-.18,.08-.24,.23-.05,.15-.08,.28-.08,.39v.23h.08c.05,0,.1-.03,.16-.08,0-.05-.03-.08-.08-.08,.05-.1,.08-.18,.08-.23s.03-.13,.08-.23Zm.23-.69c.16-.15,.21-.28,.16-.38,0-.05-.03-.08-.08-.08-.11,0-.16,.03-.16,.08l-.08,.08v.23h-.08c0,.05,.02,.08,.08,.08,0,.05,.03,.08,.08,.08,.05,0,.08-.03,.08-.08Zm.24-.85c.1,0,.16-.08,.16-.23,.05,0,.05-.03,0-.08,0-.05-.05-.08-.16-.08h-.08v.31l.08,.08Zm.7-4.63v-.08c0-.05-.03-.08-.08-.08l-.16,.15v.08c-.05,0-.08,.03-.08,.08v.08c-.1,.1-.1,.15,0,.15,0,.05,.03,.08,.08,.08l.16-.08c.05,0,.08-.03,.08-.08v-.15c0-.05,.01-.08,.04-.08,.03,0,.04-.03,.04-.08h-.08Zm0,2.62c.05,0,.08-.03,.08-.08s-.03-.1-.08-.15c-.16,0-.26,.1-.31,.31,0,.05-.01,.1-.04,.15-.03,.05-.04,.1-.04,.15,0,.15,.03,.23,.08,.23h.08c.05,0,.08-.03,.08-.08v-.08c.1-.2,.16-.36,.16-.46Zm.39-1c0-.05-.03-.08-.08-.08,0-.05-.03-.08-.08-.08h-.08v.15h-.08v.08c0,.05-.03,.1-.08,.15,0,.15,.05,.23,.16,.23,.05,0,.08-.03,.08-.08v-.08l.08-.15c.05-.05,.08-.1,.08-.15Zm-.31-2.54c0,.05,.03,.1,.08,.15,0,.05,.03,.08,.08,.08h.08c.05,0,.08-.03,.08-.08v-.08h.08v-.15c0-.05-.05-.08-.16-.08h-.08c-.05,0-.11,.03-.16,.08v.08Zm.55,1.77c.05,0,.05-.03,0-.08,0-.05-.05-.08-.16-.08l-.08,.08v.15h-.08l.08,.08,.08,.08c.1,0,.16-.08,.16-.23Zm.47-1.31h-.16c-.05,0-.08,.01-.08,.04s-.03,.04-.08,.04v.23c.05,.05,.1,.08,.16,.08,.05-.05,.08-.1,.08-.15h.08v-.23Zm.39-.85l-.08-.08c-.1-.05-.18-.05-.23,0-.05,0-.08,.05-.08,.15-.05,.05-.08,.13-.08,.23s.08,.15,.23,.15c.05,0,.08-.03,.08-.08v-.08l.08-.08v-.15l.08-.08Zm.23-.93c0-.05-.03-.1-.08-.15-.11,0-.16,.05-.16,.15-.05,.05-.05,.1,0,.15v.08h.16l.08-.08v-.15Zm8.62-7.79c0,.1,.16,.15,.47,.15,.16,0,.34-.01,.55-.04,.21-.03,.36-.06,.47-.12,.05-.05,.08-.1,.08-.15-.05-.05-.18-.08-.39-.08h-.47c-.37,0-.6,.03-.71,.08v.15Zm2.43-.15c0,.05,.03,.08,.08,.08,.1-.1,.21-.1,.31,0h.24c.1,0,.18-.03,.23-.08,.05-.05,.08-.1,.08-.15s-.08-.08-.24-.08h-.55l-.08,.08h-.08v.15Zm1.88-.23c-.05,0-.08,.01-.08,.04s.03,.04,.08,.04c0,.05,.03,.08,.08,.08h.24c.1,0,.18-.03,.23-.08v-.08c0-.05-.08-.08-.23-.08s-.26,.03-.31,.08Zm2.67-.08c-.05,0-.08,.03-.08,.08,.05,.05,.12,.09,.2,.12,.08,.03,.33,.04,.75,.04h.55l.08-.08,.08-.08c0-.15-.11-.23-.31-.23-.05,0-.08,.03-.08,.08h-.24c-.05-.05-.13-.08-.24-.08h-.16c-.26,0-.44,.05-.55,.15Zm2.43,0v.15l.08,.08h.78c.05-.05,.08-.1,.08-.15l-.16-.15h-.63c-.05,0-.08,.01-.08,.04s-.03,.04-.08,.04Zm1.88,.08c-.05,0-.08,.05-.08,.15h.16l.08,.08h.16c.1,0,.16-.02,.16-.08,.05,0,.08-.03,.08-.08-.05-.05-.09-.08-.12-.08-.03,0-.07-.02-.12-.08h-.08l-.24,.08Zm2.43,.23c-.05,0-.08,.03-.08,.08v.08c.05,.05,.13,.08,.24,.08h.24v-.08h.08l.08-.08-.08-.08c-.21-.1-.37-.1-.47,0Zm1.41,.31c0,.1,.1,.15,.31,.15h.39c.1,0,.18-.03,.24-.08v-.15c-.11,0-.22-.03-.35-.08-.13-.05-.25-.08-.35-.08h-.16c-.05,.05-.08,.1-.08,.15v.08Zm2.27,.23c-.05,.05-.08,.1-.08,.15s.08,.08,.24,.08v.08h.31c.05-.05,.08-.1,.08-.15s-.05-.08-.16-.08h-.08c-.05-.05-.11-.08-.16-.08h-.16Z"/><path class="r" d="M246.12,130.46c-.1-.15-.16-.28-.16-.39,0-.2,.37-.18,1.1,.08-.05-.05-.08-.1-.08-.15-.05-.05-.08-.1-.08-.15s-.03-.13-.08-.23c-.05-.05,.03-.04,.24,.04,.21,.08,.45,.17,.71,.27,.26,.15,.58,.28,.94,.39,1.15,.41,2.16,.62,3.02,.62s1.58-.05,2.16-.15c.68-.15,1.25-.39,1.72-.69,.42-.2,.85-.44,1.29-.69,.44-.26,.72-.39,.82-.39,.31,0,.64,.12,.98,.35,.34,.23,.61,.53,.82,.89,.21,.36,.33,.69,.35,1,.03,.31-.09,.54-.35,.69-.89,.46-1.86,.8-2.9,1-.89,.21-1.93,.3-3.14,.27-1.2-.03-2.51-.32-3.92-.89-.57-.26-1.15-.53-1.72-.81-.57-.28-1.15-.63-1.72-1.04Zm.78,22.97c-.52-.67-.8-1.55-.82-2.66-.03-1.1,.08-2.25,.31-3.43,.24-1.18,.52-2.34,.86-3.47,.34-1.13,.64-2.08,.9-2.85,0-.05,.01-.1,.04-.15,.03-.05,.04-.1,.04-.15s.03-.08,.08-.08l.24-.62,.94-2.54c0-.05,.03-.14,.08-.27,.05-.13,.11-.24,.16-.35v-.23c0-.1,.01-.18,.04-.23,.03-.05,.04-.13,.04-.23,.1-.31,.29-.46,.55-.46,.31,0,.52-.03,.63-.08-.05,.05-.08,.1-.08,.15s.03,.08,.08,.08c.05,.05,.13,.08,.24,.08h.08v-.23h.08c0-.05-.03-.08-.08-.08h.31c.26-.05,.42,.09,.47,.42,.05,.34,.13,.63,.24,.89-.16,.26-.33,.62-.51,1.08-.18,.46-.27,.75-.27,.85-.11,.21-.18,.39-.24,.54,0,.05-.05,.23-.16,.54-.11,.31-.21,.57-.31,.77,0,.05-.01,.09-.04,.12-.03,.03-.04,.06-.04,.11-.26,.62-.47,1.25-.63,1.89-.16,.64-.29,1.25-.39,1.81-.1,.31-.16,.57-.16,.77-.1,.26-.17,.53-.2,.81-.03,.28-.06,.55-.12,.81v.23c-.1,.46-.13,.75-.08,.85,0,.1-.03,.18-.08,.23v.69c0,.26,.05,.39,.16,.39,.05,0,.09-.05,.12-.15,.03-.1,.07-.46,.12-1.08v-.08c.11-.41,.18-.83,.24-1.27,.05-.44,.13-.89,.24-1.35,0-.15,.05-.33,.16-.54,.1-.1,.16-.2,.16-.31,.1-.31,.16-.54,.16-.69,.05-.1,.08-.18,.08-.23s.03-.13,.08-.23c.16-.67,.35-1.43,.59-2.27,.23-.85,.51-1.71,.82-2.58l.08-.15c.1-.31,.18-.55,.24-.73,.05-.18,.1-.35,.16-.5l.16-.15c.16-.15,.34-.18,.55-.08,.1,.05,.18,.1,.24,.15,.1,.1,.14,.17,.12,.19-.03,.03-.01,.09,.04,.19,0,.1-.04,.38-.12,.85-.08,.46-.14,.72-.2,.77,0,.1-.08,.4-.24,.89-.16,.49-.26,.81-.31,.96v.08l-.16,.54c.05-.2,.08-.33,.08-.39s-.03,.08-.08,.39c0,.05-.03,.1-.08,.15,0,.05-.05,.23-.16,.54v.15c-.05,.05-.08,.1-.08,.15s-.03,.1-.08,.15c-.11,.41-.21,.77-.31,1.08-.11,.31-.18,.59-.24,.85-.31,.98-.5,1.62-.55,1.93-.05,.21-.08,.36-.08,.46-.05,.26-.12,.8-.2,1.62-.08,.82-.12,1.67-.12,2.54s.09,1.67,.27,2.39c.18,.72,.56,1.08,1.14,1.08,.52,0,1.29-.54,2.31-1.62,1.02-1.08,2.06-2.32,3.14-3.74,1.07-1.41,2.06-2.83,2.98-4.24,.91-1.41,1.58-2.48,2-3.2l.08-.08c.05-.05,.09-.1,.12-.15,.03-.05,.09-.13,.2-.23,.1-.1,.21-.15,.31-.15,.21,.05,.29,.21,.24,.46-.05,.31-.21,.67-.47,1.08,.16-.2,.29-.31,.39-.31v.08h.16v.08c0,.26,.01,.4,.04,.42,.03,.03-.01,.09-.12,.19,.05-.05,.1-.08,.16-.08,.1,0,.16,.08,.16,.23,0,.1-.01,.17-.04,.19-.03,.03-.04,.06-.04,.11v.08c-.05,.1-.08,.18-.08,.23s-.03,.1-.08,.15l-.16,.38c-.05,.05-.08,.1-.08,.15-.05,.15-.18,.39-.39,.69-.37,.62-.85,1.36-1.45,2.23-.6,.87-1.23,1.76-1.88,2.66-.65,.9-1.32,1.76-2,2.58-.68,.82-1.28,1.49-1.8,2-.58,.57-1.18,.95-1.8,1.16-.63,.21-1.2,.31-1.72,.31-.58,0-1.18-.08-1.8-.23-.42-.15-.84-.36-1.25-.62-.36-.26-.75-.55-1.14-.89-.39-.33-.77-.76-1.14-1.27Zm.55-1.93c-.05,.05-.08,.13-.08,.23,.1,.1,.21,.15,.31,.15h.08l.08-.15c.05-.05,.05-.15,0-.31v-.15c-.1-.2-.18-.31-.24-.31-.1,0-.16,.18-.16,.54Zm0-2.08v.08c.05,.05,.13,.08,.24,.08,.05,0,.08-.02,.08-.08,.05,0,.08-.03,.08-.08v-.15c0-.05-.05-.08-.16-.08h-.08v-.08c0,.05-.03,.08-.08,.08h-.08v.23Zm0,.77v.15c0,.1,.03,.15,.08,.15h.08c.16,0,.24-.05,.24-.15v-.08c0-.1-.03-.18-.08-.23,0-.05-.08-.08-.24-.08-.05,0-.08,.05-.08,.15v.08Zm.24-2.93c-.1,.05-.17,.17-.2,.35-.03,.18,.01,.32,.12,.42l.16,.15c.11,0,.17-.05,.2-.15,.03-.1,.04-.2,.04-.31v-.08c.05,0,.05-.03,0-.08v-.08c0-.2-.05-.31-.16-.31s-.16,.03-.16,.08Zm0-.62l.08,.08c.05,.05,.11,.08,.16,.08,.11,0,.16-.05,.16-.15v-.08c.05-.05,.05-.13,0-.23,0-.1-.08-.13-.24-.08-.05,0-.08,.03-.08,.08v.23l-.08,.08Zm.24-1.7c0,.05-.01,.09-.04,.12-.03,.03-.04,.09-.04,.19v.08c0,.05,.03,.08,.08,.08,0,.05-.03,.08-.08,.08v.23l.08,.08h.16l.16-.08v-.23l-.16-.08c.16-.15,.24-.31,.24-.46l.08-.15,.24-.46c.11-.41,.18-.69,.24-.85,0-.05,.01-.1,.04-.15,.03-.05,.04-.1,.04-.15v-.08c0-.05,.01-.08,.04-.08s.04-.03,.04-.08c.21-.56,.31-.9,.31-1,.05-.26,.11-.49,.16-.69,.05-.2,.13-.44,.24-.69l.24-.69v-.08l.08-.15c.31-.87,.5-1.41,.55-1.62,.05-.2,.05-.33,0-.39-.05-.05-.11-.05-.16,0h-.08c0,.05-.03,.13-.08,.23-.05,.1-.11,.15-.16,.15h-.08v.08l-.08,.08v.23c-.05,.05-.13,.26-.24,.62,0,.21-.03,.31-.08,.31v.08c0,.05-.05,.13-.16,.23v.15c0,.05-.01,.08-.04,.08s-.04,.05-.04,.15-.01,.24-.04,.42c-.03,.18-.09,.35-.2,.5,0,.21-.08,.41-.24,.62-.05,.1-.09,.19-.12,.27-.03,.08-.06,.17-.12,.27-.05,.1-.1,.3-.16,.58-.05,.28-.1,.48-.16,.58l-.08,.08v.08l-.08,.15c0,.05,.03,.08,.08,.08-.1,.1-.16,.22-.16,.35s-.02,.24-.08,.35c0,.1-.01,.17-.04,.19-.03,.03-.04,.06-.04,.11v.15h-.08v.15Zm2.51-7.94c-.05,.05-.08,.13-.08,.23v.08c.05,0,.09,.01,.12,.04,.03,.03,.06,.04,.12,.04h.08v-.15l.08-.08v-.08h.08l.08-.08v-.23c.05,0,.08-.05,.08-.15-.16-.1-.26-.13-.31-.08-.05,0-.08,.05-.08,.15-.11,.1-.16,.21-.16,.31Zm.86-4.93c-.11-.1-.26-.15-.47-.15,.05,.1,.05,.17,0,.19-.05,.03-.03,.06,.08,.12,.1,.15,.24,.15,.39,0,.05,0,.08-.03,.08-.08l.08-.15-.16,.08Zm.55,.15l-.08-.08v.08l-.08-.08-.08-.08h-.08v.15c-.05-.1-.07-.13-.04-.08,.03,.05,.01,.05-.04,0v.08c0,.05,.02,.08,.08,.08l.16,.15,.16-.23Zm.39,.31c0-.05-.03-.1-.08-.15,.05,0,.1-.03,.16-.08l-.16-.08-.08,.08-.08-.08v.23h.16l.08,.08Zm1.02-.15h-.08c-.05,0-.1-.03-.16-.08-.1-.1-.16-.1-.16,0-.1,0-.16,.08-.16,.23h.55v-.15Zm4.08-.31c.57-.2,.86-.41,.86-.62h-.08c-.11,0-.25,.03-.43,.08-.18,.05-.3,.13-.35,.23-.11,.05-.18,.1-.24,.15-.05,.05-.13,.08-.24,.08h-.08c-.57,.15-.95,.24-1.14,.27-.18,.03-.3,.04-.35,.04h-.24l-.08-.08,.08,.15c-.05-.1-.09-.14-.12-.11-.03,.03,.01,.06,.12,.11h-.94l-.08-.08-.08,.08h-.08c-.11,0-.16,.03-.16,.08v-.15l-.08,.08c0-.05-.05-.08-.16-.08l-.08,.15v.08c.05,.05,.08,.05,.08,0,.05,.05,.1,.08,.16,.08h.08v-.08l.39,.08h.63c.1,0,.18,.03,.24,.08l.16-.08h.31l-.08-.08h.08c.05,.05,.08,.05,.08,0,.1,0,.18,.01,.24,.04,.05,.03,.13,.01,.24-.04h.08c.16,0,.27-.01,.35-.04,.08-.03,.17-.06,.27-.12,.05-.05,.1-.08,.16-.08h.16l.31-.23Zm-3.68-.23c-.05,.05-.05,.1,0,.15l.16,.15,.08-.15c.05-.1,.05-.13,0-.08l-.08-.15-.16,.08Zm.71,0h-.08l-.08-.08-.08,.08c0,.05,.03,.08,.08,.08v.08l.08,.08c.16,0,.24-.05,.24-.15h-.08l-.08-.08Zm0-.46l.16,.15c.16,0,.26-.03,.31-.08,.1,.1,.24,.1,.39,0v-.08l-.24-.15c-.11,0-.16,.01-.16,.04s-.03,.04-.08,.04h-.24l-.16,.08Zm.24,.62c.16,.05,.39,.06,.71,.04,.31-.03,.55-.09,.71-.19,.31-.15,.55-.26,.71-.31l.24-.08c.1-.1,.21-.18,.31-.23,.1-.05,.21-.13,.31-.23v-.15h-.16c-.16,0-.26,.03-.31,.08,0,.05-.03,.08-.08,.08s-.05,.03,0,.08l-.08,.08c-.42,.21-.71,.36-.86,.46l-1.02,.15-.39,.08h-.08v.15Zm.78-.85c0,.05-.03,.08-.08,.08s-.08,.03-.08,.08c.05,.15,.18,.15,.39,0l.08,.15,.08-.15c.05,.05,.1,.05,.16,0,.05-.05,.13-.1,.24-.15l.47-.46c-.05-.05-.1-.06-.16-.04-.05,.03-.08,.01-.08-.04h-.08l-.16,.15-.08,.08,.08,.08-.78,.23Zm1.8,20.04h.08c.1,0,.24-.08,.39-.23,.16-.15,.24-.28,.24-.39v-.08c0-.05-.03-.08-.08-.08s-.13,.03-.24,.08c-.1,.05-.16,.13-.16,.23-.05,.1-.09,.17-.12,.19-.03,.03-.07,.09-.12,.19v.08Zm.94-1.31c-.05,0-.08,.01-.08,.04,0,.03,.03,.04,.08,.04,0,.05,.03,.08,.08,.08s.13-.05,.24-.15c.1-.1,.16-.18,.16-.23v-.15h-.24l-.08,.15c-.11,0-.16,.08-.16,.23Zm.63-.77h.16c.16,0,.24-.05,.24-.15v-.15c-.05,0-.1-.03-.16-.08-.05,0-.08,.03-.08,.08l-.08,.08v.08h-.08v.15Zm.94-1.31c.05,0,.08,.03,.08,.08h.08c.1,0,.18-.04,.24-.12,.05-.08,.1-.14,.16-.19,.05-.1,.1-.17,.16-.19,.05-.03,.08-.09,.08-.19v-.08c0-.05-.03-.08-.08-.08s-.08,.01-.08,.04-.03,.04-.08,.04h-.16v.08c-.1,.1-.16,.18-.16,.23-.1,.1-.18,.21-.24,.31v.08Zm.94-1.31c-.05,0-.05,.03,0,.08v.08h.08c.05,0,.13-.05,.24-.15,.1-.1,.16-.18,.16-.23s-.03-.1-.08-.15h-.16l-.08,.15c-.11,0-.16,.08-.16,.23Zm.63-.85c0,.05,.03,.08,.08,.08s.1-.02,.16-.08c0-.05,.03-.1,.08-.15,.1-.1,.08-.15-.08-.15-.05,0-.1,.03-.16,.08v.08h-.08v.15Zm.94-1.39c-.05,0-.08,.05-.08,.15-.05,0-.05,.03,0,.08,.05,0,.08,.01,.08,.04s.03,.04,.08,.04l.08-.08c0-.05,.01-.08,.04-.08s.04-.03,.04-.08v-.15h-.16l-.08,.08Zm.39-.54c.05,.05,.13,.08,.24,.08l.08-.08,.08-.08v-.08c.1-.1,.13-.18,.08-.23l-.08-.08c-.05,0-.11,.03-.16,.08-.11,0-.16,.05-.16,.15-.05,.05-.08,.1-.08,.15v.08Z"/><path class="o" d="M271.29,132.31c1.46-.36,2.64-.46,3.53-.31,.89,.15,1.59,.44,2.12,.85,.31-.05,.67,.04,1.06,.27s.54,.81,.43,1.73c-.05,.46-.18,.92-.39,1.39,0,.05-.01,.08-.04,.08s-.04,.03-.04,.08c-.26,.67-.69,1.34-1.29,2-.6,.67-1.03,1.05-1.29,1.16-.21,.1-.37,.24-.47,.42-.1,.18-.26,.22-.47,.11-.1,0-.23,.04-.39,.12-.16,.08-.29,.14-.39,.19-.1,.05-.18,.06-.23,.04-.05-.03-.03-.14,.08-.35,.1-.2,.3-.55,.59-1.04,.29-.49,.55-.99,.78-1.5,.24-.51,.36-1.01,.39-1.5,.03-.49-.17-.86-.59-1.12-.42-.26-.94-.24-1.57,.04-.63,.28-1.27,.71-1.92,1.27-.65,.57-1.27,1.19-1.84,1.89-.58,.69-.97,1.3-1.18,1.81-.42,1.03-.64,2.03-.67,3.01-.03,.98,.3,1.98,.98,3.01,.05,.05,.09,.1,.12,.15,.03,.05,.06,.1,.12,.15,.84-.56,1.61-1.09,2.31-1.58,.71-.49,1.46-.93,2.27-1.31,.81-.39,1.71-.73,2.7-1.04,.99-.31,2.2-.56,3.61-.77,.21,0,.42,.03,.63,.08,.42,.1,.52,.28,.31,.54-.21,.31-.38,.5-.51,.58-.13,.08-.25,.17-.35,.27-.11,.05-.24,.08-.39,.08h-.16c-.05,.15-.1,.28-.16,.39l-.23,.39c-.05,0-.3,.05-.75,.15-.44,.1-1.07,.3-1.88,.58-.81,.28-1.76,.72-2.86,1.31-1.1,.59-2.3,1.38-3.61,2.35v.08c.21,.67,.35,1.41,.43,2.24,.08,.82,0,1.7-.24,2.62s-.65,1.88-1.25,2.85c-.6,.98-1.48,1.93-2.63,2.85-.52,.41-1.04,.74-1.57,1-.42,.26-.89,.42-1.41,.5-.52,.08-.99-.04-1.41-.35-.1-.05-.21-.15-.31-.31-.1-.1-.21-.23-.31-.39-.1-.15-.18-.31-.23-.46-.57-.82-.64-1.81-.2-2.97,.45-1.16,1.05-2.26,1.8-3.32,.76-1.05,1.53-1.97,2.31-2.74,.78-.77,1.25-1.23,1.41-1.39-.26-.67-.59-1.23-.98-1.7-.39-.46-.77-.9-1.14-1.31-.73-.72-1.17-1.47-1.33-2.24-.16-.77-.21-1.46-.16-2.08,.05-.72,.23-1.41,.55-2.08,.42-.98,1.02-1.93,1.8-2.85,.68-.77,1.54-1.52,2.59-2.24,1.05-.72,2.35-1.28,3.92-1.7Zm-8.15,25.59c.26,.05,.75-.33,1.45-1.16,.71-.82,1.27-2.08,1.68-3.78l.24-1.39v-.54c-.21,.21-.47,.51-.78,.92-.89,1.03-1.59,2.03-2.12,3.01-.52,.98-.84,1.7-.94,2.16-.05,.62,.11,.87,.47,.77Zm1.8-19.27h-.08l-.16-.15-.08,.08h-.08v.15l.08,.08h.08c0,.05,.03,.08,.08,.08l.08-.08h.08v-.15Zm.39-.39l-.08-.08-.16-.15h-.08v-.08c-.1,0-.16,.03-.16,.08v.08h-.08v.15c.16,.15,.26,.23,.31,.23h.08l.08-.08c.05,0,.08-.03,.08-.08v-.08Zm.16-.38l-.16-.15h-.16v.08h-.08v.15h.08c0,.05,.03,.08,.08,.08l.08,.08c.05,0,.08-.03,.08-.08h.08v-.15Zm.47,11.95c0,.05-.08,.14-.23,.27-.16,.13-.24,.24-.24,.35l.08,.08h.08c.1,0,.24-.1,.39-.31,.05,0,.08-.02,.08-.08h.08c.05-.05,.09-.1,.12-.15,.03-.05,.06-.1,.12-.15,.1-.15,.13-.26,.08-.31h-.08c-.05,0-.1,.05-.16,.15-.05,0-.08,.01-.08,.04s-.03,.04-.08,.04l-.08,.08h-.08Zm0-12.41c.05,0,.13-.05,.24-.15l.23-.23,.08-.08,.31-.31c0-.1,.05-.15,.16-.15l.08-.08h.08c.05,0,.08-.03,.08-.08,.05-.05,.05-.08,0-.08,.05,0,.09-.01,.12-.04,.03-.03,.06-.04,.12-.04h.08v-.08c.1,.1,.16,.08,.16-.08v-.08c.05,0,.1-.03,.16-.08,.26-.15,.42-.26,.47-.31,.1-.15,.24-.28,.39-.39,.16-.1,.29-.2,.39-.31l.16-.08c.16-.15,.26-.23,.31-.23l.08-.08c.36-.2,.52-.36,.47-.46l-.16-.08h-.08c-.1,.05-.31,.17-.63,.35-.31,.18-.52,.32-.63,.42-.05,.05-.09,.08-.12,.08-.03,0-.07,.03-.12,.08-.16,0-.29,.05-.39,.15-.21,.05-.42,.23-.63,.54-.1,0-.16,.05-.16,.15-.1,.05-.26,.18-.47,.38-.05,.1-.16,.23-.31,.39h-.08c-.05,.05-.11,.08-.16,.08v.15l-.08,.08c0,.05-.05,.13-.16,.23-.1,.05-.16,.13-.16,.23v.08c0-.05-.03-.08-.08-.08h-.08v.08c-.05,0-.08,.03-.08,.08v.08l.16,.15h.16v-.08h.08v-.15Zm.55,18.81c.05-.05,.08-.1,.08-.15l.16-.38c0-.1,.05-.2,.16-.31,.26-.41,.37-.67,.31-.77v-.08l.08,.08c.05,0,.08-.03,.08-.08,.05,0,.08-.03,.08-.08v-.08l-.08-.08h.08v.08c.05,0,.08-.03,.08-.08h.08v-.08c0-.05-.03-.08-.08-.08v-.08h-.16c0-.05-.03-.08-.08-.08v.08h-.08v.15h-.08l-.08,.08v.15l.08,.08h-.08c-.05,0-.18,.15-.39,.46,0,.05-.03,.1-.08,.15-.1,.15-.18,.26-.23,.31,0,.05-.03,.1-.08,.15v.08l-.08,.08c-.11,0-.16,.08-.16,.23v.08c.1,.1,.23,.15,.39,.15h.08Zm3.06-20.43c.52-.36,.82-.56,.9-.62,.08-.05,.09-.1,.04-.15,0-.05-.05-.08-.16-.08s-.18,.03-.23,.08l-.08,.08c-.26,.05-.5,.17-.7,.35-.21,.18-.42,.35-.63,.5-.16,.15-.29,.26-.39,.31-.1,.05-.18,.11-.23,.19-.05,.08-.13,.17-.24,.27-.05,0-.08,.03-.08,.08-.21,.21-.37,.33-.47,.39-.21,.21-.37,.39-.47,.54-.26,.26-.42,.44-.47,.54-.05,.1-.08,.21-.08,.31l.08,.08c.05,.05,.1,.08,.16,.08,.21,0,.36-.15,.47-.46l.16-.15c.26-.26,.57-.58,.94-.96,.36-.39,.78-.76,1.25-1.12l.23-.23Zm-1.41,18.42c-.1,.21-.21,.39-.31,.54-.05,.1-.1,.19-.16,.27-.05,.08-.1,.17-.16,.27,0,.05-.01,.09-.04,.11-.03,.03-.04,.07-.04,.12-.11,.26-.18,.39-.24,.39,0,.05-.01,.09-.04,.11-.03,.03-.04,.07-.04,.12-.05,.1-.13,.21-.24,.31-.05,.05-.1,.13-.16,.23-.1,.2-.13,.33-.08,.39h.08c.1,0,.21-.08,.31-.23,.1-.1,.21-.26,.31-.46,.05-.1,.09-.17,.12-.19,.03-.02,.06-.09,.12-.19,.21-.2,.39-.42,.55-.66,.16-.23,.26-.47,.31-.73,.1-.26,.17-.54,.2-.85,.03-.31,.06-.59,.12-.85,0-.05-.03-.08-.08-.08-.16,0-.25,.06-.27,.19-.03,.13-.07,.24-.12,.35v.39c-.05,.1-.08,.18-.08,.23s-.03,.13-.08,.23Zm-.63-5.78c-.1,0-.16,.05-.16,.15-.05,0-.08,.03-.08,.08-.05,0-.11,.03-.16,.08l-.08,.08v.15h.08c.1,0,.21-.04,.31-.11,.1-.08,.18-.14,.23-.19l.08-.15h-.08c0-.05-.05-.08-.16-.08Zm.86-.77c-.05,.05-.08,.1-.08,.15v.08c0,.05,.03,.08,.08,.08h.08c.05-.05,.08-.1,.08-.15,.1-.1,.16-.18,.16-.23h-.16l-.08,.08h-.08Zm1.72-1.23c0,.1,.05,.15,.16,.15,.05,0,.08-.05,.08-.15h.16c.26-.1,.47-.28,.63-.54h.08c.05,0,.08-.03,.08-.08s-.03-.08-.08-.08c-.11,0-.27,.06-.51,.19-.24,.13-.41,.24-.51,.35,0,.05-.03,.1-.08,.15Zm1.1-11.64l.08-.08v-.08l-.16-.15c-.05,0-.1,.03-.16,.08-.05-.05-.13-.03-.23,.08v.08c.05,.15,.1,.23,.16,.23s.08-.03,.08-.08h.08c.05,0,.08-.03,.08-.08h.08Zm.78-.39l-.08-.08c0-.1-.05-.15-.16-.15h-.08c-.05,0-.08,.03-.08,.08-.05,.05-.05,.08,0,.08,0,.1,.03,.18,.08,.23h.16l.08-.08,.08-.08Zm0,10.79c-.05,.05-.08,.1-.08,.15s.03,.08,.08,.08h.08c.05,0,.09-.01,.12-.04,.03-.03,.06-.04,.12-.04,.21-.15,.34-.23,.39-.23v-.15l-.16-.08c-.05,0-.13,.05-.23,.15h-.08c-.05,0-.13,.05-.23,.15Zm1.41-.69c-.05,.05-.05,.1,0,.15h.08c.16,0,.29-.08,.39-.23v-.08c-.05,0-.08-.01-.08-.04s-.03-.04-.08-.04l-.16,.08c-.05,0-.08,.03-.08,.08s-.03,.08-.08,.08Zm2.35-1h-.31c-.11,0-.16,.05-.16,.15v.08c.05,0,.08,.01,.08,.04,0,.03,.03,.04,.08,.04h.16c.16-.05,.23-.13,.23-.23v-.08h-.08Zm.78-.15c.05,.05,.1,.08,.16,.08h.16c.05,0,.08-.03,.08-.08h.08c.21-.05,.31-.1,.31-.15v-.15c-.05,0-.09-.01-.12-.04-.03-.03-.07-.04-.12-.04-.1,0-.26,.05-.47,.15l-.08,.15v.08Zm1.96-.62v.15l.08,.08h.16c.05-.05,.09-.08,.12-.08s.06-.03,.12-.08c.1,0,.1-.05,0-.15h-.23c-.11,0-.18,.03-.24,.08Z"/><path class="i" d="M288.85,128.76c-1.05,2.67-2.04,5.35-2.98,8.02-.94,2.67-1.86,5.4-2.74,8.17-.26,1.03-.54,2.12-.82,3.28-.29,1.16-.55,2.27-.78,3.35-.24,1.08-.4,2.06-.51,2.93-.1,.87-.1,1.54,0,2,0,.46,.03,.87,.08,1.23,.05,.31,.09,.63,.12,.96,.03,.33,.07,.55,.12,.65-.05,.05-.08,.1-.08,.15-.05,.05-.08,.1-.08,.15s-.05,.08-.16,.08-.39-.14-.86-.42c-.47-.28-.76-.58-.86-.89-.16,.1-.26,.06-.31-.11-.05-.18-.1-.3-.16-.35,0-.1-.01-.1-.04,0-.03,.1-.09,.18-.2,.23-.05,.05-.13,.03-.24-.08-.05-.05-.08-.1-.08-.15-.16-.46-.27-.82-.35-1.08-.08-.26-.12-.64-.12-1.16,0-.77,.03-1.48,.08-2.12,.05-.64,.13-1.14,.24-1.5,0-.1,.01-.18,.04-.23,.03-.05,.04-.1,.04-.15,.57-2.83,1.23-5.65,1.96-8.48,.73-2.83,1.54-5.63,2.43-8.4,.31-1.08,.65-2.16,1.02-3.24,.36-1.08,.76-2.16,1.18-3.24-1.05,.21-2.08,.41-3.1,.62-1.02,.21-2.08,.44-3.18,.69-.21,.1-.42,.15-.63,.15-.16,0-.31-.03-.47-.08s-.21-.15-.16-.31c0-.2,.07-.36,.2-.46,.13-.1,.25-.2,.35-.31,.16-.1,.34-.15,.55-.15,.52-.2,1.15-.41,1.88-.62,1.25-.36,2.98-.82,5.17-1.39,.42-1.08,.84-2.17,1.25-3.28,.42-1.1,.84-2.2,1.25-3.28,.05-.05,.08-.09,.08-.12,0-.03,.03-.06,.08-.11v-.15c0-.05,.03-.08,.08-.08,.1-.1,.14-.26,.12-.46-.03-.2,.04-.33,.2-.39,.16,0,.34-.08,.55-.23,.21-.15,.5-.15,.86,0,.36,.15,.61,.28,.75,.39,.13,.1,.25,.26,.35,.46,.1,.21,.21,.39,.31,.54,.1,.15,.18,.36,.24,.62,.05,.26,.1,.45,.16,.58,.05,.13,.05,.32,0,.58-.05,.26-.1,.44-.16,.54-.05,.1-.13,.23-.24,.39-.16,.21-.24,.4-.24,.58s-.13,.5-.39,.96c-.11,.26-.2,.5-.27,.73-.08,.23-.17,.5-.27,.81,2.61-.46,5.44-.78,8.47-.96s6.11-.06,9.25,.35c1.05,0,1.96,.08,2.74,.23,.68,.1,1.28,.3,1.8,.58,.52,.28,.71,.63,.55,1.04l.31,.15c.21,.1,.23,.26,.08,.46-.05,.1-.55,.05-1.49-.15-.94-.2-2.38-.39-4.31-.54-1.93-.15-4.4-.2-7.41-.15-3.01,.05-6.6,.39-10.78,1l-.47,1.16Zm-7.68,14.26c.05-.1,.12-.24,.2-.42,.08-.18,.14-.37,.2-.58,0-.1,.05-.26,.16-.46,.11-.2,.21-.46,.31-.77,.21-.56,.39-1.12,.55-1.66,.16-.54,.31-1.09,.47-1.66,.1-.41,.22-.84,.35-1.27,.13-.44,.27-.86,.43-1.27,0-.2,.05-.41,.16-.62,.1-.31,.21-.62,.31-.93,.1-.31,.18-.59,.24-.85v-.08h-.08c-.05,0-.1,.05-.16,.15-.05,.1-.21,.44-.47,1-.11,.31-.2,.59-.27,.85-.08,.26-.15,.38-.2,.38-.05,.1-.12,.28-.2,.54-.08,.26-.12,.44-.12,.54-.05,.1-.08,.18-.08,.23s-.03,.13-.08,.23c0,.15-.05,.34-.16,.54l-.16,.46c-.26,.57-.48,1.16-.67,1.77-.18,.62-.38,1.21-.59,1.77-.1,.52-.21,.93-.31,1.23-.1,.36-.2,.71-.27,1.04-.08,.33-.17,.71-.27,1.12-.05,.05-.08,.13-.08,.23-.05,.1-.08,.22-.08,.35s-.03,.24-.08,.35c-.1,.31-.18,.51-.24,.62,0,.21-.03,.34-.08,.39-.05,.1-.1,.26-.16,.46-.05,.21-.05,.33,0,.38,0,.05,.03,.08,.08,.08,.11,0,.21-.2,.31-.62,.16-.41,.3-.82,.43-1.23,.13-.41,.25-.82,.35-1.23,.05-.2,.09-.39,.12-.54,.03-.15,.07-.33,.12-.54Zm1.41-.62c0-.05,.01-.09,.04-.12,.03-.03,.04-.06,.04-.12,.1-.36,.2-.71,.27-1.04,.08-.33,.17-.68,.27-1.04,.1-.31,.18-.56,.24-.77,.05-.1,.13-.31,.24-.62,.21-.51,.36-1.03,.47-1.54,0-.05-.03-.1-.08-.15-.11,0-.22,.14-.35,.42-.13,.28-.25,.6-.35,.96-.16,.41-.29,.85-.39,1.31v.08c-.26,.82-.47,1.54-.63,2.16-.16,.36-.29,.73-.39,1.12-.1,.38-.21,.78-.31,1.19v.08h.08c.31,0,.6-.64,.86-1.93Zm.71-.15c.05,0,.08-.05,.08-.15l-.08-.08c-.11,0-.18,.08-.24,.23-.05,.15-.08,.28-.08,.39v.23h.08c.05,0,.1-.03,.16-.08,0-.05-.03-.08-.08-.08,.05-.1,.08-.18,.08-.23s.03-.13,.08-.23Zm.24-.69c.16-.15,.21-.28,.16-.38,0-.05-.03-.08-.08-.08-.11,0-.16,.03-.16,.08l-.08,.08v.23h-.08c0,.05,.03,.08,.08,.08,0,.05,.03,.08,.08,.08s.08-.03,.08-.08Zm.24-.85c.1,0,.16-.08,.16-.23,.05,0,.05-.03,0-.08,0-.05-.05-.08-.16-.08h-.08v.31l.08,.08Zm.71-4.63v-.08c0-.05-.03-.08-.08-.08l-.16,.15v.08c-.05,0-.08,.03-.08,.08v.08c-.11,.1-.11,.15,0,.15,0,.05,.03,.08,.08,.08l.16-.08c.05,0,.08-.03,.08-.08v-.15c0-.05,.01-.08,.04-.08,.03,0,.04-.03,.04-.08h-.08Zm0,2.62c.05,0,.08-.03,.08-.08s-.03-.1-.08-.15c-.16,0-.26,.1-.31,.31,0,.05-.01,.1-.04,.15-.03,.05-.04,.1-.04,.15,0,.15,.03,.23,.08,.23h.08c.05,0,.08-.03,.08-.08v-.08c.1-.2,.16-.36,.16-.46Zm.39-1c0-.05-.03-.08-.08-.08,0-.05-.03-.08-.08-.08h-.08v.15h-.08v.08c0,.05-.03,.1-.08,.15,0,.15,.05,.23,.16,.23,.05,0,.08-.03,.08-.08v-.08l.08-.15c.05-.05,.08-.1,.08-.15Zm-.31-2.54c0,.05,.03,.1,.08,.15,0,.05,.03,.08,.08,.08h.08c.05,0,.08-.03,.08-.08v-.08h.08v-.15c0-.05-.05-.08-.16-.08h-.08c-.05,0-.11,.03-.16,.08v.08Zm.55,1.77c.05,0,.05-.03,0-.08,0-.05-.05-.08-.16-.08l-.08,.08v.15h-.08l.08,.08,.08,.08c.1,0,.16-.08,.16-.23Zm.47-1.31h-.16c-.05,0-.08,.01-.08,.04s-.03,.04-.08,.04v.23c.05,.05,.1,.08,.16,.08,.05-.05,.08-.1,.08-.15h.08v-.23Zm.39-.85l-.08-.08c-.1-.05-.18-.05-.24,0-.05,0-.08,.05-.08,.15-.05,.05-.08,.13-.08,.23s.08,.15,.24,.15c.05,0,.08-.03,.08-.08v-.08l.08-.08v-.15l.08-.08Zm.24-.93c0-.05-.03-.1-.08-.15-.11,0-.16,.05-.16,.15-.05,.05-.05,.1,0,.15v.08h.16l.08-.08v-.15Zm8.62-7.79c0,.1,.16,.15,.47,.15,.16,0,.34-.01,.55-.04,.21-.03,.36-.06,.47-.12,.05-.05,.08-.1,.08-.15-.05-.05-.18-.08-.39-.08h-.47c-.37,0-.6,.03-.71,.08v.15Zm2.43-.15c0,.05,.03,.08,.08,.08,.1-.1,.21-.1,.31,0h.24c.1,0,.18-.03,.24-.08,.05-.05,.08-.1,.08-.15s-.08-.08-.24-.08h-.55l-.08,.08h-.08v.15Zm1.88-.23c-.05,0-.08,.01-.08,.04s.03,.04,.08,.04c0,.05,.03,.08,.08,.08h.24c.1,0,.18-.03,.24-.08v-.08c0-.05-.08-.08-.24-.08s-.26,.03-.31,.08Zm2.67-.08c-.05,0-.08,.03-.08,.08,.05,.05,.12,.09,.2,.12,.08,.03,.33,.04,.74,.04h.55l.08-.08,.08-.08c0-.15-.11-.23-.31-.23-.05,0-.08,.03-.08,.08h-.23c-.05-.05-.13-.08-.24-.08h-.16c-.26,0-.44,.05-.55,.15Zm2.43,0v.15l.08,.08h.78c.05-.05,.08-.1,.08-.15l-.16-.15h-.63c-.05,0-.08,.01-.08,.04s-.03,.04-.08,.04Zm1.88,.08c-.05,0-.08,.05-.08,.15h.16l.08,.08h.16c.1,0,.16-.02,.16-.08,.05,0,.08-.03,.08-.08-.05-.05-.09-.08-.12-.08s-.07-.02-.12-.08h-.08l-.24,.08Zm2.43,.23c-.05,0-.08,.03-.08,.08v.08c.05,.05,.13,.08,.24,.08h.23v-.08h.08l.08-.08-.08-.08c-.21-.1-.37-.1-.47,0Zm1.41,.31c0,.1,.1,.15,.31,.15h.39c.1,0,.18-.03,.24-.08v-.15c-.11,0-.22-.03-.35-.08-.13-.05-.25-.08-.35-.08h-.16c-.05,.05-.08,.1-.08,.15v.08Zm2.27,.23c-.05,.05-.08,.1-.08,.15s.08,.08,.23,.08v.08h.31c.05-.05,.08-.1,.08-.15s-.05-.08-.16-.08h-.08c-.05-.05-.1-.08-.16-.08h-.16Z"/><path class="l" d="M289.63,153.43c-.52-.67-.8-1.55-.82-2.66-.03-1.1,.08-2.25,.31-3.43,.23-1.18,.52-2.34,.86-3.47,.34-1.13,.64-2.08,.9-2.85,0-.05,.01-.1,.04-.15,.03-.05,.04-.1,.04-.15s.03-.08,.08-.08l.24-.62,.94-2.54c0-.05,.03-.14,.08-.27,.05-.13,.11-.24,.16-.35v-.23c0-.1,.01-.18,.04-.23,.03-.05,.04-.13,.04-.23,.1-.31,.29-.46,.55-.46,.31,0,.52-.03,.63-.08-.05,.05-.08,.1-.08,.15s.02,.08,.08,.08c.05,.05,.13,.08,.24,.08h.08v-.23h.08c0-.05-.03-.08-.08-.08h.31c.26-.05,.42,.09,.47,.42,.05,.34,.13,.63,.24,.89-.16,.26-.33,.62-.51,1.08-.18,.46-.27,.75-.27,.85-.11,.21-.18,.39-.24,.54,0,.05-.05,.23-.16,.54-.11,.31-.21,.57-.31,.77,0,.05-.01,.09-.04,.12-.03,.03-.04,.06-.04,.11-.26,.62-.47,1.25-.63,1.89-.16,.64-.29,1.25-.39,1.81-.1,.31-.16,.57-.16,.77-.1,.26-.17,.53-.2,.81-.03,.28-.06,.55-.12,.81v.23c-.1,.46-.13,.75-.08,.85,0,.1-.03,.18-.08,.23v.69c0,.26,.05,.39,.16,.39,.05,0,.09-.05,.12-.15,.03-.1,.07-.46,.12-1.08v-.08c.11-.41,.18-.83,.24-1.27,.05-.44,.13-.89,.24-1.35,0-.15,.05-.33,.16-.54,.1-.1,.16-.2,.16-.31,.1-.31,.16-.54,.16-.69,.05-.1,.08-.18,.08-.23s.03-.13,.08-.23c.16-.67,.35-1.43,.59-2.27,.24-.85,.51-1.71,.82-2.58l.08-.15c.1-.31,.18-.55,.24-.73,.05-.18,.1-.35,.16-.5l.16-.15c.16-.15,.34-.18,.55-.08,.1,.05,.18,.1,.24,.15,.1,.1,.14,.17,.12,.19-.03,.03-.01,.09,.04,.19,0,.1-.04,.38-.12,.85-.08,.46-.14,.72-.2,.77,0,.1-.08,.4-.24,.89-.16,.49-.26,.81-.31,.96v.08l-.16,.54c.05-.2,.08-.33,.08-.39s-.03,.08-.08,.39c0,.05-.03,.1-.08,.15,0,.05-.05,.23-.16,.54v.15c-.05,.05-.08,.1-.08,.15s-.03,.1-.08,.15c-.1,.41-.21,.77-.31,1.08-.11,.31-.18,.59-.24,.85-.31,.98-.5,1.62-.55,1.93-.05,.21-.08,.36-.08,.46-.05,.26-.12,.8-.2,1.62-.08,.82-.12,1.67-.12,2.54s.09,1.67,.27,2.39c.18,.72,.56,1.08,1.14,1.08,.52,0,1.29-.54,2.31-1.62,1.02-1.08,2.06-2.32,3.14-3.74,1.07-1.41,2.06-2.83,2.98-4.24,.91-1.41,1.58-2.48,2-3.2l.08-.08c.05-.05,.09-.1,.12-.15,.03-.05,.09-.13,.2-.23,.1-.1,.21-.15,.31-.15,.21,.05,.29,.21,.24,.46-.05,.31-.21,.67-.47,1.08,.16-.2,.29-.31,.39-.31v.08h.16v.08c0,.26,.01,.4,.04,.42,.03,.03-.01,.09-.12,.19,.05-.05,.1-.08,.16-.08,.1,0,.16,.08,.16,.23,0,.1-.01,.17-.04,.19-.03,.03-.04,.06-.04,.11v.08c-.05,.1-.08,.18-.08,.23s-.03,.1-.08,.15l-.16,.38c-.05,.05-.08,.1-.08,.15-.05,.15-.18,.39-.39,.69-.37,.62-.85,1.36-1.45,2.23-.6,.87-1.23,1.76-1.88,2.66-.65,.9-1.32,1.76-2,2.58-.68,.82-1.28,1.49-1.8,2-.57,.57-1.18,.95-1.8,1.16-.63,.21-1.2,.31-1.72,.31-.58,0-1.18-.08-1.8-.23-.42-.15-.84-.36-1.25-.62-.36-.26-.74-.55-1.14-.89-.39-.33-.77-.76-1.14-1.27Zm.55-1.93c-.05,.05-.08,.13-.08,.23,.11,.1,.21,.15,.31,.15h.08l.08-.15c.05-.05,.05-.15,0-.31v-.15c-.1-.2-.18-.31-.24-.31-.1,0-.16,.18-.16,.54Zm0-2.08v.08c.05,.05,.13,.08,.24,.08,.05,0,.08-.02,.08-.08,.05,0,.08-.03,.08-.08v-.15c0-.05-.05-.08-.16-.08h-.08v-.08c0,.05-.02,.08-.08,.08h-.08v.23Zm0,.77v.15c0,.1,.03,.15,.08,.15h.08c.16,0,.24-.05,.24-.15v-.08c0-.1-.03-.18-.08-.23,0-.05-.08-.08-.24-.08-.05,0-.08,.05-.08,.15v.08Zm.24-2.93c-.1,.05-.17,.17-.2,.35-.03,.18,.01,.32,.12,.42l.16,.15c.11,0,.17-.05,.2-.15,.03-.1,.04-.2,.04-.31v-.08c.05,0,.05-.03,0-.08v-.08c0-.2-.05-.31-.16-.31s-.16,.03-.16,.08Zm0-.62l.08,.08c.05,.05,.11,.08,.16,.08,.11,0,.16-.05,.16-.15v-.08c.05-.05,.05-.13,0-.23,0-.1-.08-.13-.24-.08-.05,0-.08,.03-.08,.08v.23l-.08,.08Zm.24-1.7c0,.05-.01,.09-.04,.12-.03,.03-.04,.09-.04,.19v.08c0,.05,.03,.08,.08,.08,0,.05-.03,.08-.08,.08v.23l.08,.08h.16l.16-.08v-.23l-.16-.08c.16-.15,.24-.31,.24-.46l.08-.15,.24-.46c.11-.41,.18-.69,.24-.85,0-.05,.01-.1,.04-.15,.03-.05,.04-.1,.04-.15v-.08c0-.05,.01-.08,.04-.08,.03,0,.04-.03,.04-.08,.21-.56,.31-.9,.31-1,.05-.26,.11-.49,.16-.69,.05-.2,.13-.44,.24-.69l.24-.69v-.08l.08-.15c.31-.87,.5-1.41,.55-1.62,.05-.2,.05-.33,0-.39-.05-.05-.11-.05-.16,0h-.08c0,.05-.03,.13-.08,.23-.05,.1-.11,.15-.16,.15h-.08v.08l-.08,.08v.23c-.05,.05-.13,.26-.24,.62,0,.21-.03,.31-.08,.31v.08c0,.05-.05,.13-.16,.23v.15c0,.05-.01,.08-.04,.08-.03,0-.04,.05-.04,.15s-.01,.24-.04,.42c-.03,.18-.09,.35-.2,.5,0,.21-.08,.41-.24,.62-.05,.1-.09,.19-.12,.27-.03,.08-.06,.17-.12,.27-.05,.1-.1,.3-.16,.58-.05,.28-.1,.48-.16,.58l-.08,.08v.08l-.08,.15c0,.05,.03,.08,.08,.08-.1,.1-.16,.22-.16,.35s-.03,.24-.08,.35c0,.1-.01,.17-.04,.19-.03,.03-.04,.06-.04,.11v.15h-.08v.15Zm2.51-7.94c-.05,.05-.08,.13-.08,.23v.08c.05,0,.09,.01,.12,.04,.03,.03,.06,.04,.12,.04h.08v-.15l.08-.08v-.08h.08l.08-.08v-.23c.05,0,.08-.05,.08-.15-.16-.1-.26-.13-.31-.08-.05,0-.08,.05-.08,.15-.11,.1-.16,.21-.16,.31Zm3.37-2.23c-.26,.05-.61,.01-1.06-.12-.44-.13-.8-.24-1.06-.35-.31-.1-.59-.27-.82-.5-.23-.23-.35-.45-.35-.66s.12-.63,.35-1.27c.24-.64,.4-1.17,.51-1.58,.31-.77,.52-1.36,.63-1.77,.05-.1,.13-.23,.24-.39,.1-.15,.18-.18,.24-.08v-.08c.1,0,.25,.03,.43,.08,.18,.05,.41,.13,.67,.23,.26,.1,.43,.15,.51,.15s.27,.03,.59,.08c.31,.05,.59,.08,.82,.08s.4,.05,.51,.15c.1,.1,.22,.22,.35,.35,.13,.13,.2,.24,.2,.35-.05,.1-.08,.19-.08,.27s-.03,.17-.08,.27c-.05,.21-.17,.63-.35,1.27-.18,.64-.3,1.04-.35,1.19-.11,.41-.39,.89-.86,1.43-.47,.54-.81,.84-1.02,.89Zm-2.35-2.31c.05,.05,.16,.08,.31,.08h.08c.1-.1,.2-.27,.27-.5,.08-.23,.12-.4,.12-.5v-.08c.1,0,.21-.05,.31-.15,.05-.05,.08-.1,.08-.15s.01-.08,.04-.08c.03,0,.04-.03,.04-.08v-.08c0-.05,.01-.09,.04-.11s.04-.06,.04-.12c.05,0,.08-.03,.08-.08l-.08-.08c-.05,0-.05-.03,0-.08v-.31c0-.05,.03-.12,.08-.19,.05-.08,.08-.17,.08-.27,.05-.05,.08-.13,.08-.23s.03-.2,.08-.31c.05-.1,.08-.2,.08-.31-.05-.05-.13-.08-.24-.08-.05,0-.09,.01-.12,.04-.03,.03-.07,.04-.12,.04l-.16,.15v.15c-.05,.05-.09,.14-.12,.27-.03,.13-.06,.22-.12,.27v.08h.08v.08h-.08c-.1,.05-.21,.12-.31,.19-.11,.08-.13,.19-.08,.35,0-.05-.05,.08-.16,.39-.05,.1-.08,.21-.08,.31-.05,.1-.08,.26-.08,.46v.08c-.05,0-.08,.03-.08,.08v.08h.08v.08l-.16,.31v.31Zm5.72,18.73h.08c.1,0,.24-.08,.39-.23,.16-.15,.24-.28,.24-.39v-.08c0-.05-.03-.08-.08-.08s-.13,.03-.24,.08c-.11,.05-.16,.13-.16,.23-.05,.1-.09,.17-.12,.19-.03,.03-.06,.09-.12,.19v.08Zm.94-1.31c-.05,0-.08,.01-.08,.04,0,.03,.03,.04,.08,.04,0,.05,.03,.08,.08,.08s.13-.05,.24-.15c.1-.1,.16-.18,.16-.23v-.15h-.24l-.08,.15c-.1,0-.16,.08-.16,.23Zm.63-.77h.16c.16,0,.24-.05,.24-.15v-.15c-.05,0-.11-.03-.16-.08-.05,0-.08,.03-.08,.08l-.08,.08v.08h-.08v.15Zm.94-1.31c.05,0,.08,.03,.08,.08h.08c.1,0,.18-.04,.24-.12,.05-.08,.1-.14,.16-.19,.05-.1,.1-.17,.16-.19,.05-.03,.08-.09,.08-.19v-.08c0-.05-.03-.08-.08-.08s-.08,.01-.08,.04-.03,.04-.08,.04h-.16v.08c-.11,.1-.16,.18-.16,.23-.11,.1-.18,.21-.24,.31v.08Zm.94-1.31c-.05,0-.05,.03,0,.08v.08h.08c.05,0,.13-.05,.24-.15,.1-.1,.16-.18,.16-.23s-.03-.1-.08-.15h-.16l-.08,.15c-.1,0-.16,.08-.16,.23Zm.63-.85c0,.05,.03,.08,.08,.08s.1-.02,.16-.08c0-.05,.03-.1,.08-.15,.1-.1,.08-.15-.08-.15-.05,0-.11,.03-.16,.08v.08h-.08v.15Zm.94-1.39c-.05,0-.08,.05-.08,.15-.05,0-.05,.03,0,.08,.05,0,.08,.01,.08,.04s.03,.04,.08,.04l.08-.08c0-.05,.01-.08,.04-.08,.02,0,.04-.03,.04-.08v-.15h-.16l-.08,.08Zm.39-.54c.05,.05,.13,.08,.24,.08l.08-.08,.08-.08v-.08c.1-.1,.13-.18,.08-.23l-.08-.08c-.05,0-.1,.03-.16,.08-.1,0-.16,.05-.16,.15-.05,.05-.08,.1-.08,.15v.08Z"/><path class="k" d="M304.29,153.97c-.42-.56-.57-1.57-.47-3.01,.1-1.44,.45-3.08,1.02-4.93,.11-.41,.25-.89,.43-1.43,.18-.54,.41-1.09,.67-1.66,.99-2.31,2.3-4.47,3.92-6.48,1.62-2,3.53-3.31,5.72-3.93,.42,0,.81,.03,1.18,.08,.31,.05,.63,.15,.94,.31,.31,.15,.6,.38,.86,.69l.16,.31c.16,.36,.31,.77,.47,1.23,.16,.46,.29,.9,.39,1.31,.16,.51,.26,1.03,.31,1.54v.08c0,.05-.01,.08-.04,.08-.03,0-.04,.03-.04,.08-.1,.21-.26,.42-.47,.66-.21,.23-.5,.4-.86,.5h-.24c-.78,.05-1.18-.36-1.18-1.23v-1.7c-.05-.31-.11-.58-.16-.81-.05-.23-.16-.32-.31-.27-.16,0-.64,.37-1.45,1.12-.81,.75-1.69,1.84-2.63,3.28-.73,.98-1.4,2.09-2,3.35-.6,1.26-1.11,2.63-1.53,4.12-.21,.72-.38,1.45-.51,2.2-.13,.75-.22,1.53-.27,2.35-.05,.26-.05,.51,0,.77,.05,.26,.12,.5,.2,.73,.08,.23,.2,.45,.35,.66,.26,.36,.63,.51,1.1,.46v.08c.05,0,.09-.01,.12-.04,.03-.03,.06-.04,.12-.04,.42-.05,.94-.14,1.57-.27,.63-.13,1.54-.58,2.74-1.35,1.62-1.08,2.99-2.16,4.12-3.24,1.12-1.08,1.97-1.93,2.55-2.54h.08c.21-.26,.36-.44,.47-.54,.1-.1,.18-.18,.24-.23,.26-.26,.48-.51,.67-.77,.18-.26,.35-.46,.51-.62l.08-.08c.1-.1,.24-.2,.39-.31l.31-.15c.26,.1,.31,.28,.16,.54-.05,.15-.14,.31-.27,.46-.13,.15-.25,.31-.35,.46,.26-.26,.44-.31,.55-.15v.08c-.05,.26-.08,.4-.08,.42s-.05,.11-.16,.27c.05-.05,.1-.08,.16-.08,.1,0,.13,.08,.08,.23,0,.05-.01,.09-.04,.12-.03,.03-.04,.06-.04,.11s-.03,.08-.08,.08v.08c-.05,.1-.09,.17-.12,.19-.03,.03-.07,.09-.12,.19-.05,.1-.13,.21-.24,.31v.08c-.05,.05-.17,.18-.35,.39-.18,.21-.4,.44-.67,.69-.47,.46-1.05,1.01-1.72,1.66-.68,.64-1.44,1.3-2.27,1.97-.84,.67-1.75,1.31-2.74,1.93-.99,.62-1.99,1.11-2.98,1.46-1.05,.41-2.06,.64-3.06,.69h-.63c-.26-.05-.65-.13-1.18-.23-.52-.1-1.1-.36-1.72-.77-.57-.36-1.12-.87-1.65-1.54Zm2.35-8.17v.08c0,.05,.03,.08,.08,.08,0,.05,.05,.08,.16,.08s.21-.05,.31-.15v-.23c0-.1-.03-.15-.08-.15h-.39l-.08,.08v.08h.08c-.05,0-.08,.03-.08,.08v.08Zm.24-.77c0,.05,.03,.08,.08,.08s.08,.03,.08,.08v.08c0,.1,.08,.15,.24,.15,.11,0,.16-.03,.16-.08v-.15c0-.1-.05-.15-.16-.15h-.08c.05,0,.08-.03,.08-.08,0-.1-.05-.15-.16-.15l-.08-.08h-.08l-.08,.08v.23Zm.39-1.31c-.05,0-.08,.05-.08,.15v.08c.05,0,.09,.01,.12,.04,.03,.03,.07,.04,.12,.04s.08-.03,.08-.08c.05,0,.08-.03,.08-.08v-.15l-.08-.08h-.16l-.08,.08Zm.24-.77c-.05,0-.08,.08-.08,.23v.08c.05,0,.09,.01,.12,.04,.03,.03,.07,.04,.12,.04s.08-.05,.08-.15l.08-.08v-.15c.05,0,.08-.01,.08-.04s-.03-.04-.08-.04c-.05-.05-.1-.08-.16-.08-.1,0-.16,.05-.16,.15Zm.24-1c-.16,.15-.18,.28-.08,.39,.11,.1,.18,.15,.24,.15s.1-.03,.16-.08c.16-.15,.24-.36,.24-.62v-.08c-.16-.1-.34-.02-.55,.23Zm.71-1.08c-.05,.1-.08,.18-.08,.23,.05,0,.08,.01,.08,.04s.03,.04,.08,.04l.16-.15c.1,0,.21-.15,.31-.46v-.08l.08-.15c.1-.1,.16-.19,.16-.27s.05-.19,.16-.35c.05-.1,.1-.18,.16-.23,.05-.05,.1-.13,.16-.23,.1-.2,.18-.33,.24-.39,.26-.46,.56-.91,.9-1.35,.34-.44,.67-.84,.98-1.19,.1-.05,.21-.13,.31-.23,.1-.1,.21-.2,.31-.31l.31-.31,.16-.08c.05-.05,.1-.09,.16-.12,.05-.03,.1-.06,.16-.12,.05-.1,.08-.2,.08-.31-.05,0-.08-.01-.08-.04,0-.03-.03-.04-.08-.04s-.18,.08-.39,.23l-.24,.23h-.08c-.57,.46-.97,.85-1.18,1.16l-.08,.08c-.05,0-.08,.01-.08,.04s-.03,.04-.08,.04c-.16,.1-.24,.18-.24,.23l-.16,.15c-.05,.1-.09,.17-.12,.19-.03,.03-.06,.09-.12,.19-.16,.21-.31,.4-.47,.58-.16,.18-.29,.4-.39,.66-.21,.41-.34,.69-.39,.85-.11,.21-.2,.4-.27,.58-.08,.18-.17,.35-.27,.5-.05,0-.08,.03-.08,.08l-.08,.08c0,.05,.03,.1,.08,.15-.05,0-.08,.03-.08,.08Zm3.06-2.7c0-.05-.03-.08-.08-.08s-.13,.03-.24,.08l-.16,.15c-.1,0-.21,.1-.31,.31v.08c-.16,.26-.34,.54-.55,.85-.21,.31-.39,.64-.55,1l-.24,.46c-.16,.21-.26,.41-.31,.62-.26,.36-.44,.8-.55,1.31v.08c0,.05,.03,.08,.08,.08h.16c.16,0,.26-.03,.31-.08,0-.05,.01-.08,.04-.08s.04-.03,.04-.08v-.15c0-.05,.01-.09,.04-.12,.03-.03,.04-.06,.04-.12,.05-.05,.08-.1,.08-.15s.03-.1,.08-.15c.05-.1,.08-.19,.08-.27s.02-.17,.08-.27c.05-.1,.09-.19,.12-.27,.02-.08,.06-.17,.12-.27,.1-.26,.22-.51,.35-.77,.13-.26,.27-.46,.43-.62v-.08c.21-.31,.37-.57,.47-.77l.16-.15,.31-.46v-.08Zm.55-.69l-.16-.15c-.05,0-.11,.03-.16,.08-.11,.1-.16,.18-.16,.23v.08c.1,.1,.18,.15,.24,.15l.08-.08v-.08c.05,0,.08-.02,.08-.08,.05,0,.08-.03,.08-.08v-.08Zm.55-.54c0-.1-.08-.15-.24-.15l-.08,.08c-.05,0-.08,.03-.08,.08v.08l.16,.15h.16v-.08h.08v-.15Zm2.9,16.11c-.05,0-.08,.03-.08,.08,.05,0,.08,.03,.08,.08h.08c.1,0,.25-.05,.43-.15,.18-.1,.3-.2,.35-.31v-.15h-.16c-.1,0-.24,.05-.39,.15-.16,.1-.26,.21-.31,.31Zm1.25-.92c-.05,.05-.08,.1-.08,.15l.08,.08h.08c.05,0,.1-.03,.16-.08l.24-.23v-.15h-.08c-.05,0-.13,.03-.24,.08l-.16,.15Zm.86-.77c-.05,.05-.08,.13-.08,.23,0,.05,.05,.08,.16,.08,.05,0,.13-.05,.24-.15v-.08c0-.05-.01-.08-.04-.08s-.04-.03-.04-.08h-.08c-.05,0-.08,.03-.08,.08h-.08Zm1.1-.85c0,.05,.03,.08,.08,.08h.08c.1,0,.25-.06,.43-.19,.18-.13,.27-.24,.27-.35v-.08c-.05-.05-.11-.08-.16-.08-.11,0-.24,.08-.39,.23-.16,.15-.26,.26-.31,.31v.08Zm1.18-1.16c0,.05-.01,.08-.04,.08-.03,0-.04,.05-.04,.15,.05,0,.08,.01,.08,.04,0,.03,.03,.04,.08,.04,0-.05,.03-.08,.08-.08s.1-.02,.16-.08l.16-.15v-.15c0-.05-.03-.08-.08-.08s-.13,.03-.24,.08c0,.1-.05,.15-.16,.15Zm.86-.77c-.1,.1-.13,.18-.08,.23,0,.05,.03,.08,.08,.08,.1,0,.17-.04,.2-.12,.03-.08,.06-.12,.12-.12,0-.05-.05-.1-.16-.15h-.08l-.08,.08Zm.94-.77h.08l.08,.08h.08v-.08h.08c.05-.05,.08-.13,.08-.23-.05-.05-.16-.05-.31,0l-.08,.15v.08Zm.63-.69l.16,.15h.16v-.08l.08-.08,.08-.08v-.23c0-.05-.08-.05-.24,0l-.16,.15-.08,.08v.08Zm.94-1c0,.1,.05,.15,.16,.15h.08c0-.05,.03-.08,.08-.08v-.08h.08v-.08c0-.05-.03-.1-.08-.15-.05,0-.13,.05-.24,.15l-.08,.08Z"/><path class="g" d="M323.89,156.05c-1.2-.67-2.01-1.46-2.43-2.39-.42-.93-.6-1.89-.55-2.89,.05-1,.24-1.99,.55-2.97,.31-.98,.63-1.82,.94-2.54,.47-1.23,1.07-2.41,1.8-3.55,.73-1.13,1.53-2.13,2.39-3.01,.86-.87,1.76-1.58,2.7-2.12,.94-.54,1.88-.84,2.82-.89v-.08c.78-.26,1.57-.33,2.35-.23,.68,.1,1.36,.36,2.04,.77,.68,.41,1.28,1.18,1.8,2.31,.05,.1,.08,.21,.08,.31,0,.26-.08,.41-.24,.46-.05,0-.09,.01-.12,.04-.03,.03-.09,.04-.2,.04,0,.26-.18,.28-.55,.08-.21-.1-.39-.2-.55-.31h-.08l-1.1-.54c-.37-.2-.77-.35-1.22-.42-.44-.08-.9-.04-1.37,.11-.05,.05-.1,.08-.16,.08-.99,.41-2.09,1.36-3.29,2.85-.52,.62-.95,1.14-1.29,1.58-.34,.44-.65,.91-.94,1.43-.29,.51-.59,1.09-.9,1.73-.31,.64-.65,1.5-1.02,2.58-.42,1.08-.68,1.9-.78,2.47-.1,.57-.16,.98-.16,1.23,0,.31,.08,.49,.24,.54,.78-.15,1.66-.71,2.63-1.66,.97-.95,1.92-2.02,2.86-3.2,.94-1.18,1.78-2.35,2.51-3.51,.73-1.16,1.23-1.97,1.49-2.43,.1-.26,.33-.67,.67-1.23,.34-.56,.67-.9,.98-1,.1-.1,.25-.18,.43-.23,.18-.05,.35-.03,.51,.08,.26,.21,.44,.44,.55,.69l.47,.54,.16,.15c.1,.1,.22,.19,.35,.27,.13,.08,.25,.22,.35,.42,.1,.41,.13,.72,.08,.92,0,.21-.08,.39-.24,.54,0,.1-.01,.19-.04,.27-.03,.08-.04,.17-.04,.27l-.24,.54v.15c-.16,.77-.26,1.36-.31,1.77-.05,.41-.1,.72-.16,.93-.05,.21-.08,.36-.08,.46-.05,.26-.13,.76-.24,1.5-.1,.75-.14,1.53-.12,2.35,.03,.82,.14,1.55,.35,2.2,.21,.64,.6,.96,1.18,.96,.52,0,1.28-.54,2.27-1.62,.99-1.08,2.02-2.32,3.1-3.74,1.07-1.41,2.06-2.83,2.98-4.24,.91-1.41,1.58-2.48,2-3.2l.08-.08c.05-.05,.09-.1,.12-.15,.03-.05,.09-.13,.2-.23,.1-.1,.21-.15,.31-.15,.21,.05,.29,.21,.23,.46,0,.21-.04,.39-.12,.54-.08,.15-.17,.31-.27,.46,.21-.31,.36-.36,.47-.15v.23h-.16l-.08,.08c-.05,.05-.08,.1-.08,.15v.08c.05,.05,.1,.08,.16,.08,.05,0,.08-.03,.08-.08l.08-.08,.08-.08c0,.1-.05,.21-.16,.31,.26-.15,.37-.1,.31,.15,0,.15-.03,.26-.08,.31v.08c-.05,.1-.08,.18-.08,.23s-.03,.1-.08,.15l-.16,.39c-.05,.05-.08,.1-.08,.15-.05,.15-.18,.38-.39,.69-.37,.62-.85,1.36-1.45,2.24-.6,.87-1.23,1.76-1.88,2.66-.65,.9-1.32,1.76-2,2.58-.68,.82-1.28,1.49-1.8,2-.57,.57-1.16,.95-1.76,1.16-.6,.21-1.16,.31-1.68,.31-.57,0-1.18-.08-1.8-.23-.42-.15-.84-.36-1.25-.62-.37-.26-.76-.55-1.18-.89-.42-.33-.81-.76-1.18-1.27-.26-.31-.43-.78-.51-1.43-.08-.64-.12-1.28-.12-1.93s.01-1.21,.04-1.7c.03-.49,.04-.76,.04-.81-.05,.05-.33,.5-.82,1.35s-1.4,2.27-2.7,4.28c-.78,1.18-1.52,2-2.19,2.47-.68,.46-1.28,.75-1.8,.85-.57,.1-1.1,.03-1.57-.23Zm.47-10.71v.15h.31c.05,0,.08-.03,.08-.08,.05-.05,.08-.2,.08-.46v-.08h.08v-.31h-.08v-.08h-.08c-.05-.05-.13-.08-.24-.08l-.08,.08v.23c-.05,0-.05,.03,0,.08h.16c0,.05-.01,.09-.04,.12-.03,.03-.04,.06-.04,.11-.1,.1-.16,.18-.16,.23v.08Zm.55-1.77c-.05,0-.08,.05-.08,.15l.08,.08c.05,0,.08,.01,.08,.04s.03,.04,.08,.04,.08-.03,.08-.08h.08v-.23l-.16-.08h-.08c-.05,0-.08,.03-.08,.08Zm.39,.93c0-.1-.03-.15-.08-.15,0-.05-.03-.08-.08-.08h-.08l-.08,.08c-.05,0-.08,.03-.08,.08v.08c0,.05,.03,.08,.08,.08l.08,.08h.08c.05,0,.08-.03,.08-.08h.08v-.08Zm0-1.62c-.1,.1-.16,.18-.16,.23l.08,.08,.08,.08h.08c.05,0,.11-.03,.16-.08v-.08c.05,0,.08-.03,.08-.08v-.15l-.16-.15c-.1,0-.16,.05-.16,.15Zm.24-.39c.1,.1,.18,.15,.24,.15,.1,0,.2-.08,.27-.23,.08-.15,.12-.28,.12-.39,0-.05-.03-.1-.08-.15,0-.1-.11-.1-.31,0-.16,.15-.24,.31-.24,.46v.15Zm2.9-1.93c.37-.36,.6-.59,.71-.69,.1-.1,.16-.2,.16-.31l-.08-.08c0-.05-.03-.08-.08-.08-.21,0-.71,.49-1.49,1.46-.21,.15-.42,.44-.63,.85-.11,.26-.21,.44-.31,.54-.26,.1-.46,.36-.59,.77-.13,.41-.2,.67-.2,.77-.05,.05-.05,.1,0,.15h.16c.16,0,.3-.12,.43-.35,.13-.23,.25-.47,.35-.73l.16-.31,.16-.31c.05-.15,.18-.39,.39-.69,.31-.2,.52-.46,.63-.77l.08-.08,.16-.15Zm-2.35,1c-.05,0-.05,.03,0,.08h.08c.21,0,.36-.13,.47-.39,.05,0,.08,.03,.08,.08l.08-.08h.08v-.08c.05,0,.08-.03,.08-.08l-.08-.15c0-.05,.05-.13,.16-.23,0,.05,.03,.08,.08,.08h.08l.08-.08c.05,0,.08-.03,.08-.08,.05,0,.08-.03,.08-.08v-.15l-.08-.08,.24-.31v.15c.1,.1,.18,.08,.24-.08,.26,0,.39-.15,.39-.46l-.08-.08,.63-.62c.26-.26,.51-.49,.74-.69,.24-.2,.51-.38,.82-.54,.42-.2,.73-.33,.94-.39h.39c.16,0,.26-.03,.31-.08,.1,0,.16-.05,.16-.15l-.08-.08c-.05,0-.1-.01-.16-.04-.05-.03-.13-.04-.24-.04s-.24,.01-.39,.04c-.16,.03-.29,.04-.39,.04-.21,.1-.43,.21-.67,.31-.24,.1-.43,.21-.59,.31l-.08,.08c-.16,.1-.31,.19-.47,.27-.16,.08-.31,.19-.47,.35-.1,.05-.25,.17-.43,.35-.18,.18-.38,.4-.59,.66,0,.05-.01,.08-.04,.08-.03,0-.04,.03-.04,.08l-.24,.31c-.26,.26-.5,.54-.71,.85-.21,.31-.37,.62-.47,.93Zm1.8-1.39c0,.05,.03,.08,.08,.08,.1,0,.16-.03,.16-.08s-.05-.08-.16-.08l-.08,.08Zm1.96-1.08c.05,0,.08-.01,.08-.04s-.03-.04-.08-.04c0-.1-.05-.15-.16-.15h-.16c0,.05-.03,.08-.08,.08-.05,.05-.08,.13-.08,.23,.1,.1,.18,.15,.24,.15l.08-.08c.05,0,.08-.03,.08-.08,.05,0,.08-.03,.08-.08Zm.63-.62c-.05,0-.08-.03-.08-.08s-.05-.08-.16-.08v.08h-.08c-.05,.05-.08,.1-.08,.15v.08c.05,.05,.1,.08,.16,.08v.08h.08l.08-.08h.08v-.23Zm5.41,11.49c0-.05-.03-.08-.08-.08-.26,0-.42,.03-.47,.08,.05,.05,.08,.1,.08,.15,0,.1,.03,.18,.08,.23h.39v-.08h.08l.08-.08v-.23h-.16Zm-.08,.77h-.24c-.05,0-.08,.03-.08,.08h-.08l.08,.08c.05,.05,.1,.08,.16,.08h.24v-.08l-.08-.08v-.08Zm.24-1.54l.08-.08h-.08l-.16-.08h-.08c-.1,0-.16,.03-.16,.08h-.08v.08c0,.1,.1,.13,.31,.08v-.08h.16Zm1.33-6.09c.1-.26,.16-.47,.16-.65s.05-.4,.16-.66v-.08l-.08-.08h-.08c-.1,.05-.21,.21-.31,.46-.1,.26-.21,.54-.31,.85-.1,.36-.18,.77-.24,1.23-.11,.31-.16,.59-.16,.85-.11,.15-.16,.34-.16,.54s-.03,.41-.08,.62c-.21,.1-.33,.23-.35,.39-.03,.15-.04,.31-.04,.46-.05,.1-.08,.18-.08,.23-.05,.1-.1,.23-.16,.39-.05,.15-.05,.28,0,.38,0,.21,.03,.31,.08,.31,0,.05,.1,.08,.31,.08,.16-.05,.24-.23,.24-.54l-.08-.08c.16-.31,.24-.64,.24-1,0-.15,.03-.32,.08-.5,.05-.18,.08-.37,.08-.58v-.08c0-.05,.03-.1,.08-.15,0-.15,.05-.28,.16-.39-.05-.1-.05-.19,0-.27,.05-.08,.05-.14,0-.19,.21-.26,.3-.53,.27-.81-.03-.28,.06-.53,.27-.73Zm6.27,8.4l.08,.08c.1,0,.23-.09,.39-.27,.16-.18,.24-.32,.24-.42v-.08l-.08-.08c-.16,0-.29,.13-.39,.38l-.24,.31v.08Zm.94-1.31v.15h.08c.05,0,.13-.04,.23-.12,.1-.08,.16-.17,.16-.27v-.08l-.08-.08c-.05,0-.13,.05-.24,.15-.05,0-.08,.03-.08,.08-.05,.05-.08,.1-.08,.15Zm.63-.85v.08c.05,0,.08,.03,.08,.08,.05,0,.08-.03,.08-.08,.16,0,.24-.05,.24-.15v-.08c-.05-.05-.11-.08-.16-.08h-.08c0,.05-.03,.08-.08,.08v.08l-.08,.08Zm.94-1.23l.08,.08h.08c.1,0,.18-.04,.24-.12,.05-.08,.1-.14,.16-.19,.16-.15,.23-.28,.23-.39s-.05-.15-.16-.15-.22,.11-.35,.35c-.13,.23-.22,.35-.27,.35v.08Zm.94-1.16h.08c.05,0,.13-.05,.23-.15,.1-.1,.16-.18,.16-.23l-.08-.08-.08-.08c-.05,0-.1,.03-.16,.08v.08l-.08,.08c-.05,.05-.08,.1-.08,.15v.15Zm.63-.93c0,.05,.03,.08,.08,.08,.1,0,.16-.05,.16-.15h.08c0-.05,.03-.1,.08-.15l-.16-.15c-.05,0-.11,.03-.16,.08v.08l-.08,.08v.15Zm.94-1.46c-.05,.05-.08,.1-.08,.15-.05,0-.05,.03,0,.08v.08h.16l.08-.08,.08-.08v-.23h-.08c-.1,0-.16,.03-.16,.08Zm.78-.62c.1-.15,.13-.26,.08-.31l-.08-.08c-.05,0-.08,.01-.08,.04s-.03,.04-.08,.04l-.16,.15c-.05,.05-.08,.1-.08,.15v.08c.1,.1,.18,.15,.23,.15l.08-.08c0-.05,.03-.08,.08-.08v-.08Z"/><path class="m" d="M357.75,132.31c1.46-.36,2.64-.46,3.53-.31,.89,.15,1.59,.44,2.12,.85,.31-.05,.67,.04,1.06,.27,.39,.23,.54,.81,.43,1.73-.05,.46-.18,.92-.39,1.39,0,.05-.01,.08-.04,.08-.03,0-.04,.03-.04,.08-.26,.67-.69,1.34-1.29,2-.6,.67-1.03,1.05-1.29,1.16-.21,.1-.37,.24-.47,.42-.11,.18-.26,.22-.47,.11-.11,0-.24,.04-.39,.12-.16,.08-.29,.14-.39,.19-.11,.05-.18,.06-.24,.04-.05-.03-.03-.14,.08-.35,.1-.2,.3-.55,.59-1.04,.29-.49,.55-.99,.78-1.5,.23-.51,.36-1.01,.39-1.5,.03-.49-.17-.86-.59-1.12-.42-.26-.94-.24-1.57,.04-.63,.28-1.27,.71-1.92,1.27-.65,.57-1.27,1.19-1.84,1.89-.57,.69-.97,1.3-1.18,1.81-.42,1.03-.64,2.03-.67,3.01-.03,.98,.3,1.98,.98,3.01,.05,.05,.09,.1,.12,.15,.03,.05,.06,.1,.12,.15,.84-.56,1.61-1.09,2.31-1.58,.71-.49,1.46-.93,2.27-1.31,.81-.39,1.71-.73,2.7-1.04,.99-.31,2.19-.56,3.61-.77,.21,0,.42,.03,.63,.08,.42,.1,.52,.28,.31,.54-.21,.31-.38,.5-.51,.58-.13,.08-.25,.17-.35,.27-.1,.05-.24,.08-.39,.08h-.16c-.05,.15-.11,.28-.16,.39l-.24,.39c-.05,0-.3,.05-.74,.15-.45,.1-1.07,.3-1.88,.58-.81,.28-1.76,.72-2.86,1.31-1.1,.59-2.3,1.38-3.61,2.35v.08c.21,.67,.35,1.41,.43,2.24,.08,.82,0,1.7-.23,2.62-.24,.93-.65,1.88-1.25,2.85-.6,.98-1.48,1.93-2.63,2.85-.52,.41-1.04,.74-1.57,1-.42,.26-.89,.42-1.41,.5-.52,.08-.99-.04-1.41-.35-.1-.05-.21-.15-.31-.31-.1-.1-.21-.23-.31-.39-.1-.15-.18-.31-.24-.46-.57-.82-.64-1.81-.2-2.97,.45-1.16,1.05-2.26,1.8-3.32,.76-1.05,1.53-1.97,2.31-2.74,.78-.77,1.25-1.23,1.41-1.39-.26-.67-.59-1.23-.98-1.7-.39-.46-.77-.9-1.14-1.31-.73-.72-1.18-1.47-1.33-2.24-.16-.77-.21-1.46-.16-2.08,.05-.72,.24-1.41,.55-2.08,.42-.98,1.02-1.93,1.8-2.85,.68-.77,1.54-1.52,2.59-2.24,1.04-.72,2.35-1.28,3.92-1.7Zm-8.15,25.59c.26,.05,.75-.33,1.45-1.16,.71-.82,1.27-2.08,1.69-3.78l.24-1.39v-.54c-.21,.21-.47,.51-.78,.92-.89,1.03-1.59,2.03-2.12,3.01-.52,.98-.84,1.7-.94,2.16-.05,.62,.11,.87,.47,.77Zm1.8-19.27h-.08l-.16-.15-.08,.08h-.08v.15l.08,.08h.08c0,.05,.03,.08,.08,.08l.08-.08h.08v-.15Zm.39-.39l-.08-.08-.16-.15h-.08v-.08c-.1,0-.16,.03-.16,.08v.08h-.08v.15c.16,.15,.26,.23,.31,.23h.08l.08-.08c.05,0,.08-.03,.08-.08v-.08Zm.16-.38l-.16-.15h-.16v.08h-.08v.15h.08c0,.05,.03,.08,.08,.08l.08,.08c.05,0,.08-.03,.08-.08h.08v-.15Zm.47,11.95c0,.05-.08,.14-.24,.27-.16,.13-.24,.24-.24,.35l.08,.08h.08c.1,0,.24-.1,.39-.31,.05,0,.08-.02,.08-.08h.08c.05-.05,.09-.1,.12-.15,.03-.05,.06-.1,.12-.15,.1-.15,.13-.26,.08-.31h-.08c-.05,0-.11,.05-.16,.15-.05,0-.08,.01-.08,.04s-.03,.04-.08,.04l-.08,.08h-.08Zm0-12.41c.05,0,.13-.05,.24-.15l.24-.23,.08-.08,.31-.31c0-.1,.05-.15,.16-.15l.08-.08h.08c.05,0,.08-.03,.08-.08,.05-.05,.05-.08,0-.08,.05,0,.09-.01,.12-.04,.03-.03,.06-.04,.12-.04h.08v-.08c.1,.1,.16,.08,.16-.08v-.08c.05,0,.1-.03,.16-.08,.26-.15,.42-.26,.47-.31,.1-.15,.24-.28,.39-.39,.16-.1,.29-.2,.39-.31l.16-.08c.16-.15,.26-.23,.31-.23l.08-.08c.37-.2,.52-.36,.47-.46l-.16-.08h-.08c-.11,.05-.31,.17-.63,.35-.31,.18-.52,.32-.63,.42-.05,.05-.09,.08-.12,.08s-.06,.03-.12,.08c-.16,0-.29,.05-.39,.15-.21,.05-.42,.23-.63,.54-.11,0-.16,.05-.16,.15-.11,.05-.26,.18-.47,.38-.05,.1-.16,.23-.31,.39h-.08c-.05,.05-.11,.08-.16,.08v.15l-.08,.08c0,.05-.05,.13-.16,.23-.11,.05-.16,.13-.16,.23v.08c0-.05-.03-.08-.08-.08h-.08v.08c-.05,0-.08,.03-.08,.08v.08l.16,.15h.16v-.08h.08v-.15Zm.55,18.81c.05-.05,.08-.1,.08-.15l.16-.38c0-.1,.05-.2,.16-.31,.26-.41,.36-.67,.31-.77v-.08l.08,.08c.05,0,.08-.03,.08-.08,.05,0,.08-.03,.08-.08v-.08l-.08-.08h.08v.08c.05,0,.08-.03,.08-.08h.08v-.08c0-.05-.03-.08-.08-.08v-.08h-.16c0-.05-.03-.08-.08-.08v.08h-.08v.15h-.08l-.08,.08v.15l.08,.08h-.08c-.05,0-.18,.15-.39,.46,0,.05-.03,.1-.08,.15-.11,.15-.18,.26-.24,.31,0,.05-.03,.1-.08,.15v.08l-.08,.08c-.11,0-.16,.08-.16,.23v.08c.1,.1,.24,.15,.39,.15h.08Zm3.06-20.43c.52-.36,.82-.56,.9-.62,.08-.05,.09-.1,.04-.15,0-.05-.05-.08-.16-.08s-.18,.03-.24,.08l-.08,.08c-.26,.05-.5,.17-.71,.35-.21,.18-.42,.35-.63,.5-.16,.15-.29,.26-.39,.31-.11,.05-.18,.11-.24,.19-.05,.08-.13,.17-.24,.27-.05,0-.08,.03-.08,.08-.21,.21-.37,.33-.47,.39-.21,.21-.37,.39-.47,.54-.26,.26-.42,.44-.47,.54-.05,.1-.08,.21-.08,.31l.08,.08c.05,.05,.1,.08,.16,.08,.21,0,.36-.15,.47-.46l.16-.15c.26-.26,.57-.58,.94-.96,.37-.39,.78-.76,1.25-1.12l.24-.23Zm-1.41,18.42c-.11,.21-.21,.39-.31,.54-.05,.1-.11,.19-.16,.27-.05,.08-.11,.17-.16,.27,0,.05-.01,.09-.04,.11-.03,.03-.04,.07-.04,.12-.11,.26-.18,.39-.24,.39,0,.05-.01,.09-.04,.11-.03,.03-.04,.07-.04,.12-.05,.1-.13,.21-.24,.31-.05,.05-.11,.13-.16,.23-.11,.2-.13,.33-.08,.39h.08c.1,0,.21-.08,.31-.23,.1-.1,.21-.26,.31-.46,.05-.1,.09-.17,.12-.19,.03-.02,.06-.09,.12-.19,.21-.2,.39-.42,.55-.66,.16-.23,.26-.47,.31-.73,.1-.26,.17-.54,.2-.85,.03-.31,.06-.59,.12-.85,0-.05-.03-.08-.08-.08-.16,0-.25,.06-.27,.19-.03,.13-.07,.24-.12,.35v.39c-.05,.1-.08,.18-.08,.23s-.03,.13-.08,.23Zm-.63-5.78c-.11,0-.16,.05-.16,.15-.05,0-.08,.03-.08,.08-.05,0-.11,.03-.16,.08l-.08,.08v.15h.08c.1,0,.21-.04,.31-.11,.1-.08,.18-.14,.24-.19l.08-.15h-.08c0-.05-.05-.08-.16-.08Zm.86-.77c-.05,.05-.08,.1-.08,.15v.08c0,.05,.03,.08,.08,.08h.08c.05-.05,.08-.1,.08-.15,.1-.1,.16-.18,.16-.23h-.16l-.08,.08h-.08Zm1.72-1.23c0,.1,.05,.15,.16,.15,.05,0,.08-.05,.08-.15h.16c.26-.1,.47-.28,.63-.54h.08c.05,0,.08-.03,.08-.08s-.03-.08-.08-.08c-.1,0-.27,.06-.51,.19-.23,.13-.41,.24-.51,.35,0,.05-.03,.1-.08,.15Zm1.1-11.64l.08-.08v-.08l-.16-.15c-.05,0-.11,.03-.16,.08-.05-.05-.13-.03-.24,.08v.08c.05,.15,.1,.23,.16,.23s.08-.03,.08-.08h.08c.05,0,.08-.03,.08-.08h.08Zm.78-.39l-.08-.08c0-.1-.05-.15-.16-.15h-.08c-.05,0-.08,.03-.08,.08-.05,.05-.05,.08,0,.08,0,.1,.03,.18,.08,.23h.16l.08-.08,.08-.08Zm0,10.79c-.05,.05-.08,.1-.08,.15s.03,.08,.08,.08h.08c.05,0,.09-.01,.12-.04,.03-.03,.06-.04,.12-.04,.21-.15,.34-.23,.39-.23v-.15l-.16-.08c-.05,0-.13,.05-.24,.15h-.08c-.05,0-.13,.05-.24,.15Zm1.41-.69c-.05,.05-.05,.1,0,.15h.08c.16,0,.29-.08,.39-.23v-.08c-.05,0-.08-.01-.08-.04s-.03-.04-.08-.04l-.16,.08c-.05,0-.08,.03-.08,.08s-.03,.08-.08,.08Zm2.35-1h-.31c-.1,0-.16,.05-.16,.15v.08c.05,0,.08,.01,.08,.04,0,.03,.03,.04,.08,.04h.16c.16-.05,.24-.13,.24-.23v-.08h-.08Zm.78-.15c.05,.05,.1,.08,.16,.08h.16c.05,0,.08-.03,.08-.08h.08c.21-.05,.31-.1,.31-.15v-.15c-.05,0-.09-.01-.12-.04-.03-.03-.07-.04-.12-.04-.11,0-.26,.05-.47,.15l-.08,.15v.08Zm1.96-.62v.15l.08,.08h.16c.05-.05,.09-.08,.12-.08s.07-.03,.12-.08c.1,0,.1-.05,0-.15h-.24c-.1,0-.18,.03-.24,.08Z"/><g><path class="n" d="M390.49,123.76h-1.91c-.34,0-.61,.27-.61,.61v11.27c-.89-.39-1.97-.58-3.22-.58-4.15,0-6.35,2.16-6.35,6.25v9.41c0,4.09,2.19,6.25,6.35,6.25,1.25,0,2.33-.2,3.22-.58,.01,.33,.28,.58,.61,.58h1.91c.34,0,.61-.27,.61-.61v-31.99c0-.34-.27-.61-.61-.61Zm-2.52,17.54v9.41c0,2.18-.99,3.16-3.22,3.16s-3.22-.97-3.22-3.16v-9.41c0-2.18,.99-3.16,3.22-3.16s3.22,.97,3.22,3.16Z"/><rect class="n" x="396.65" y="135.05" width="3.13" height="21.92" rx=".61" ry=".61"/><rect class="n" x="396.65" y="129.4" width="3.13" height="3.1" rx=".61" ry=".61"/><path class="n" d="M417.43,135.05h-1.91c-.33,0-.59,.26-.61,.58-.89-.39-1.97-.58-3.22-.58-4.15,0-6.35,2.16-6.35,6.25v9.41c0,4.09,2.2,6.25,6.35,6.25,1.25,0,2.33-.2,3.22-.58v1.86c0,2.18-.99,3.16-3.22,3.16s-3.22-.97-3.22-3.16c0-.34-.27-.61-.61-.61h-1.91c-.34,0-.61,.27-.61,.61,0,4.09,2.2,6.25,6.35,6.25s6.35-2.16,6.35-6.25v-22.58c0-.34-.27-.61-.61-.61Zm-2.52,6.25v9.41c0,2.18-.99,3.16-3.22,3.16s-3.22-.97-3.22-3.16v-9.41c0-2.18,.99-3.16,3.22-3.16s3.22,.97,3.22,3.16Z"/><rect class="n" x="423.59" y="135.05" width="3.13" height="21.92" rx=".61" ry=".61"/><rect class="n" x="423.59" y="129.4" width="3.13" height="3.1" rx=".61" ry=".61"/><path class="n" d="M440.53,135.05h-5.14v-6.92c0-.34-.27-.61-.61-.61h-1.91c-.34,0-.61,.27-.61,.61v22.58c0,4.09,2.19,6.25,6.35,6.25h1.91c.34,0,.61-.27,.61-.61v-1.88c0-.34-.27-.61-.61-.61h-1.91c-2.23,0-3.22-.97-3.22-3.16v-12.57h5.14c.34,0,.61-.27,.61-.61v-1.88c0-.34-.27-.61-.61-.61Z"/><path class="n" d="M456.73,135.05h-1.91c-.33,0-.59,.26-.61,.58-.89-.39-1.97-.58-3.22-.58-4.15,0-6.35,2.16-6.35,6.25v9.41c0,4.09,2.19,6.25,6.35,6.25,1.25,0,2.33-.2,3.22-.58,.01,.33,.28,.58,.61,.58h1.91c.34,0,.61-.27,.61-.61v-20.7c0-.34-.27-.61-.61-.61Zm-2.52,6.25v9.41c0,2.18-.99,3.16-3.22,3.16s-3.22-.97-3.22-3.16v-9.41c0-2.18,.99-3.16,3.22-3.16s3.22,.97,3.22,3.16Z"/><rect class="n" x="462.89" y="123.76" width="3.13" height="33.21" rx=".61" ry=".61"/><path class="n" d="M477.92,135.05c-4.15,0-6.35,2.16-6.35,6.25v9.41c0,4.09,2.2,6.25,6.35,6.25s6.35-2.16,6.35-6.25c0-.34-.27-.61-.61-.61h-1.91c-.34,0-.61,.27-.61,.61,0,2.18-.99,3.16-3.22,3.16s-3.22-.97-3.22-3.16v-3.16h8.96c.34,0,.61-.27,.61-.61v-5.65c0-4.09-2.19-6.25-6.35-6.25Zm-3.22,9.41v-3.16c0-2.18,.99-3.16,3.22-3.16s3.22,.97,3.22,3.16v3.16h-6.44Z"/><path class="n" d="M497.36,144.79c-3.64-1.51-4.41-2.73-4.41-3.48,0-2.18,.99-3.16,3.22-3.16s3.22,.97,3.22,3.16c0,.34,.27,.61,.61,.61h1.91c.34,0,.61-.27,.61-.61,0-4.09-2.19-6.25-6.35-6.25s-6.35,2.16-6.35,6.25c0,2.52,1.74,4.51,5.16,5.93,3.64,1.51,4.41,2.73,4.41,3.48,0,2.18-.99,3.16-3.22,3.16s-3.22-.97-3.22-3.16c0-.34-.27-.61-.61-.61h-1.91c-.34,0-.61,.27-.61,.61,0,4.09,2.19,6.25,6.35,6.25s6.35-2.16,6.35-6.25c0-2.52-1.74-4.51-5.16-5.93Z"/></g></g></g></g></g></g></svg>